<svg xmlns="http://www.w3.org/2000/svg" width="1536" height="1024" viewBox="0 0 1536 1024" version="1.1"><path d="M 456.250 247.750 C 488.563 247.896, 541.438 247.896, 573.750 247.750 C 606.063 247.603, 579.625 247.484, 515 247.484 C 450.375 247.484, 423.938 247.603, 456.250 247.750 M 679.500 248.741 C 673.450 248.874, 614.275 249.159, 548 249.374 C 481.725 249.590, 426.938 249.894, 426.250 250.050 C 425.563 250.206, 425 250.694, 425 251.135 C 425 251.576, 424.347 251.686, 423.548 251.380 C 422.749 251.074, 421.512 251.193, 420.798 251.646 C 420.084 252.099, 418.712 252.476, 417.750 252.485 C 416.788 252.493, 416.038 252.900, 416.085 253.388 C 416.132 253.877, 415.570 254.657, 414.835 255.123 C 413.730 255.823, 413.736 255.972, 414.867 255.985 C 415.786 255.995, 416.075 256.825, 415.751 258.524 C 415.485 259.912, 415.658 261.289, 416.134 261.583 C 416.610 261.877, 417 262.568, 417 263.118 C 417 263.668, 416.480 263.797, 415.845 263.405 C 415.165 262.984, 414.961 263.128, 415.349 263.756 C 415.711 264.342, 416.079 266.637, 416.166 268.857 C 416.255 271.143, 416.795 272.807, 417.412 272.696 C 418.010 272.588, 418.435 273.303, 418.355 274.285 C 418.247 275.615, 418.533 275.803, 419.473 275.023 C 420.379 274.271, 421.102 274.417, 422.037 275.544 C 423.097 276.822, 423.098 277.056, 422.044 276.806 C 421.332 276.638, 420.523 277.125, 420.245 277.889 C 419.968 278.653, 420.136 279.062, 420.620 278.798 C 421.104 278.534, 422.287 279.146, 423.250 280.159 C 425.191 282.201, 425.726 281.941, 418.250 282.588 C 416.738 282.719, 408.525 283.310, 400 283.902 C 380.118 285.282, 363.706 286.892, 358 288.022 C 354.213 288.771, 354.609 288.830, 360.500 288.391 C 364.350 288.105, 373.800 287.180, 381.500 286.336 C 392.310 285.152, 409.853 284.752, 458.500 284.582 C 493.150 284.462, 513.288 284.516, 503.250 284.703 C 493.212 284.891, 485 285.289, 485 285.589 C 485 285.888, 486.238 287.768, 487.750 289.766 C 489.262 291.764, 489.989 293.089, 489.364 292.711 C 488.710 292.315, 488.016 292.830, 487.730 293.923 C 487.299 295.573, 487.891 295.867, 492.244 296.161 C 495.597 296.388, 497.413 296.086, 497.734 295.250 C 497.998 294.563, 498.691 294, 499.274 294 C 499.856 294, 500.049 294.284, 499.702 294.631 C 499.355 294.979, 499.501 296.067, 500.027 297.051 C 500.695 298.298, 500.609 298.990, 499.742 299.340 C 498.797 299.722, 498.791 299.861, 499.715 299.921 C 500.905 299.998, 502.950 297.151, 502.651 295.833 C 502.568 295.467, 502.818 294.849, 503.206 294.461 C 503.594 294.072, 503.692 294.971, 503.422 296.457 C 503.063 298.435, 503.276 298.985, 504.216 298.506 C 504.922 298.146, 504.626 298.560, 503.559 299.426 C 502.491 300.292, 501.227 301, 500.750 301 C 498.450 301, 501.290 302.705, 503.714 302.779 C 507.013 302.881, 512.488 304.837, 509.750 304.937 C 508.788 304.971, 508 305.477, 508 306.059 C 508 306.641, 508.450 306.840, 509 306.500 C 509.550 306.160, 510 306.445, 510 307.132 C 510 307.835, 510.679 307.533, 511.552 306.441 C 513.060 304.555, 513.086 304.563, 512.484 306.750 C 512.006 308.488, 512.279 308.997, 513.683 308.985 C 515.224 308.972, 515.272 308.821, 514 307.989 C 512.898 307.269, 513.460 307.074, 516.121 307.254 C 518.772 307.434, 519.597 307.879, 519.201 308.914 C 518.825 309.897, 519.069 310.076, 520 309.500 C 520.950 308.913, 521.172 309.109, 520.763 310.175 C 520.258 311.490, 525.079 311.761, 559.257 312.339 C 580.746 312.703, 615.466 313.105, 636.414 313.232 C 657.361 313.360, 603.175 313.724, 516 314.040 L 357.500 314.616 344 317.166 C 331.235 319.578, 309.333 325.666, 310.222 326.555 C 310.448 326.781, 312.175 326.523, 314.060 325.983 C 318.434 324.728, 320.282 324.734, 319.500 326 C 319.160 326.550, 319.696 327.023, 320.691 327.052 C 321.686 327.081, 319.691 328.284, 316.257 329.726 C 308.538 332.967, 308.670 333.694, 316.489 331.004 C 324.077 328.393, 337.114 325.318, 348.442 323.465 C 361.297 321.364, 395.914 319.708, 413 320.377 C 420.975 320.690, 482.588 320.958, 549.917 320.973 C 617.246 320.988, 672.114 321.220, 671.845 321.488 C 671.577 321.757, 644.227 322.008, 611.069 322.045 C 577.911 322.083, 550.997 322.330, 551.260 322.593 C 551.523 322.857, 554.362 323.104, 557.568 323.142 C 563.806 323.216, 570.145 324.814, 564.691 324.937 C 563.146 324.971, 562.104 325.359, 562.375 325.797 C 562.646 326.236, 564.135 326.519, 565.684 326.426 C 570.245 326.154, 570.575 326.017, 569.029 325.039 C 566.637 323.526, 568.515 322.810, 572.140 323.853 C 574.662 324.578, 574.939 324.842, 573.250 324.910 C 572.013 324.959, 571 325.498, 571 326.107 C 571 326.716, 571.563 327.003, 572.250 326.745 C 572.938 326.488, 574.400 326.674, 575.500 327.159 C 577.443 328.016, 577.440 328.030, 575.417 327.658 C 573.834 327.367, 573.062 328.021, 572.199 330.387 L 571.063 333.500 572.930 331.264 C 574.631 329.227, 574.865 329.183, 575.557 330.764 C 575.975 331.719, 576.284 332.725, 576.243 333 C 576.202 333.275, 579.050 333.561, 582.573 333.637 C 587.107 333.733, 588.785 333.441, 588.317 332.637 C 587.954 332.011, 588.521 332.252, 589.578 333.172 C 590.774 334.212, 592.822 334.738, 595 334.563 C 596.925 334.409, 598.925 334.525, 599.444 334.821 C 599.964 335.116, 602.088 335.333, 604.166 335.303 C 606.930 335.263, 608.094 335.722, 608.504 337.014 C 609.268 339.420, 613.477 340.055, 616.168 338.170 C 617.763 337.052, 618.484 336.953, 618.771 337.812 C 618.988 338.465, 619.606 339, 620.142 339 C 620.679 339, 620.780 338.438, 620.367 337.750 C 619.545 336.382, 622.992 338.823, 624.250 340.500 C 624.722 341.129, 625.406 340.944, 626.094 340 C 627.021 338.730, 627.102 338.768, 626.626 340.250 C 625.975 342.273, 627.980 342.620, 629.800 340.800 C 630.733 339.867, 631.022 340.033, 631.100 341.550 C 631.178 343.082, 631.358 342.964, 631.938 341 C 632.370 339.540, 633.264 338.655, 634.089 338.874 C 634.865 339.079, 637.067 339.618, 638.982 340.071 C 640.898 340.524, 642.623 341.368, 642.816 341.947 C 643.009 342.526, 643.831 343, 644.642 343 C 645.484 343, 645.818 342.515, 645.420 341.870 C 644.992 341.178, 645.260 340.936, 646.111 341.245 C 646.875 341.523, 647.388 342.256, 647.250 342.875 C 647.113 343.494, 647.788 344.045, 648.750 344.101 C 655.820 344.508, 656.485 344.428, 656.236 343.207 C 656.024 342.172, 656.422 342.155, 658.235 343.126 C 659.479 343.792, 661.736 344.373, 663.249 344.418 C 665.762 344.493, 666 344.185, 666 340.857 C 666 336.827, 667.201 335.928, 672.332 336.116 C 674.262 336.187, 674.719 336.397, 673.500 336.655 C 672.400 336.888, 670.566 337.274, 669.424 337.514 C 667.375 337.945, 667.354 338.277, 667.796 362.879 C 668.173 383.885, 667.975 389.016, 666.536 395.484 C 665.596 399.707, 665.092 403.425, 665.414 403.747 C 665.736 404.070, 666 403.583, 666 402.667 C 666 400.753, 667.541 400.449, 668.595 402.155 C 669.015 402.834, 668.872 403.039, 668.248 402.653 C 667.563 402.230, 667.395 402.796, 667.774 404.245 C 668.278 406.170, 668.697 405.729, 670.691 401.179 C 674.473 392.550, 674.950 388.606, 674.976 365.750 L 675 344 694.250 343.985 C 704.837 343.976, 714.093 343.593, 714.817 343.134 C 716.647 341.974, 712.115 340.338, 704.500 339.408 L 698.500 338.675 702.528 337.928 C 708.434 336.831, 723.917 335.912, 758.854 334.581 C 766.199 334.301, 772.765 333.610, 773.446 333.045 C 774.127 332.480, 774.980 332.313, 775.342 332.675 C 775.704 333.037, 776 332.782, 776 332.108 C 776 331.434, 776.441 331.154, 776.979 331.487 C 777.518 331.820, 778.837 331.623, 779.910 331.048 C 781.380 330.261, 782.230 330.373, 783.359 331.502 C 785.312 333.455, 785.984 333.393, 786.070 331.250 C 786.130 329.754, 786.265 329.790, 787 331.500 C 787.530 332.734, 787.964 326.223, 788.132 314.500 L 788.405 295.500 789.006 308 C 789.348 315.109, 789.584 304.973, 789.554 284.500 L 789.500 248.500 740 248.500 C 712.775 248.500, 685.550 248.609, 679.500 248.741 M 810.712 249.622 C 810.179 250.155, 810.596 276.401, 811.574 303.892 L 812.228 322.283 820.864 321.669 C 825.614 321.330, 833.550 320.839, 838.500 320.578 L 847.500 320.101 836.500 321.497 C 830.450 322.265, 822.506 322.966, 818.848 323.055 C 812.298 323.214, 812.189 323.262, 811.764 326.152 C 811.527 327.767, 811.674 329.298, 812.089 329.555 C 812.505 329.812, 817.943 329.571, 824.173 329.020 C 830.403 328.468, 837.129 328.013, 839.121 328.009 L 842.742 328 843.438 335.065 L 844.134 342.130 847.317 341.448 C 849.068 341.073, 850.646 340.636, 850.824 340.476 C 851.003 340.316, 851.165 337.269, 851.186 333.705 L 851.223 327.226 862.862 326.542 C 873.739 325.903, 903.979 323.026, 919.218 321.179 L 925.936 320.365 926.256 330.933 L 926.575 341.500 926.788 329.954 L 927 318.407 919.981 317.204 C 916.121 316.542, 910.609 315.964, 907.731 315.921 C 901.842 315.832, 902.266 315.459, 909.342 314.504 C 917.222 313.440, 914.147 313.035, 904.213 313.829 C 894.745 314.585, 891.253 313.637, 899.750 312.618 C 911.969 311.151, 918.674 310.563, 920.614 310.788 C 921.776 310.923, 923.194 310.463, 923.765 309.767 C 924.407 308.982, 924.947 297.467, 925.183 279.500 L 925.565 250.500 870.200 250.177 C 839.750 249.999, 814.014 249.695, 813.009 249.502 C 812.005 249.308, 810.971 249.362, 810.712 249.622 M 954.500 251.569 C 953.877 251.837, 953.604 257.935, 953.775 267.749 C 955.008 338.464, 955.362 350.637, 956.212 351.706 C 956.740 352.370, 956.882 353.382, 956.527 353.956 C 956.172 354.530, 956.310 355, 956.833 355 C 957.355 355, 958.145 356.238, 958.586 357.750 C 959.336 360.318, 959.429 360.202, 959.987 356 C 960.483 352.270, 960.727 353.342, 961.413 362.265 C 961.869 368.186, 962.589 373.246, 963.014 373.508 C 963.823 374.009, 967.977 365.941, 968.032 363.761 C 968.077 361.967, 970.500 359, 971.919 359 C 972.579 359, 972.914 358.663, 972.664 358.250 C 972.129 357.366, 973.998 355.628, 975.949 355.197 C 977.813 354.784, 981.601 351.732, 981.777 350.500 C 981.856 349.950, 982.789 349.363, 983.851 349.195 C 984.940 349.023, 986.796 346.976, 988.112 344.495 C 989.721 341.461, 990.714 340.472, 991.316 341.300 C 991.892 342.092, 991.997 341.905, 991.626 340.750 C 990.919 338.553, 991.904 335.823, 993.130 336.580 C 993.636 336.893, 993.985 336.778, 993.906 336.324 C 993.466 333.789, 994.204 332, 995.691 332 C 997.152 332, 997.185 331.830, 995.929 330.750 C 995.130 330.063, 994.642 329.585, 994.844 329.690 C 995.937 330.252, 999.529 325.514, 999.703 323.281 C 999.814 321.849, 1000.489 320.306, 1001.203 319.854 C 1001.934 319.390, 1002.027 319.024, 1001.417 319.015 C 1000.821 319.007, 1000.333 318.368, 1000.333 317.595 C 1000.333 316.743, 1000.956 316.412, 1001.917 316.755 C 1002.788 317.065, 1003.171 316.955, 1002.768 316.511 C 1001.860 315.508, 1005.768 312, 1007.793 312 C 1009.691 312, 1011.918 309.088, 1011.999 306.500 C 1012.056 304.645, 1012.136 304.628, 1013.092 306.271 C 1013.659 307.245, 1014.545 307.781, 1015.061 307.462 C 1015.578 307.143, 1016 307.385, 1016 308 C 1016 308.615, 1016.430 308.852, 1016.956 308.527 C 1017.482 308.202, 1017.682 307.334, 1017.400 306.599 C 1017.039 305.660, 1017.649 305.346, 1019.448 305.544 C 1020.857 305.698, 1021.770 305.437, 1021.477 304.963 C 1021.184 304.488, 1021.869 303.605, 1023 303 C 1024.131 302.395, 1024.773 301.442, 1024.428 300.883 C 1024.069 300.303, 1024.585 300.002, 1025.627 300.183 C 1026.633 300.357, 1027.521 299.938, 1027.603 299.250 C 1027.684 298.563, 1027.806 297.500, 1027.875 296.889 C 1027.957 296.161, 1029.246 296.011, 1031.610 296.455 C 1034.617 297.019, 1035.471 296.773, 1036.725 294.982 C 1037.697 293.595, 1038.575 293.175, 1039.200 293.800 C 1039.733 294.333, 1041.069 294.533, 1042.169 294.246 C 1043.701 293.845, 1043.857 293.524, 1042.835 292.877 C 1041.891 292.279, 1042.233 292.003, 1044 291.936 C 1045.375 291.885, 1045.938 291.615, 1045.250 291.338 C 1043.915 290.799, 1043.492 288.920, 1044.750 289.118 C 1046.829 289.447, 1048 288.847, 1048 287.455 C 1048 285.454, 1052.454 281, 1054.455 281 C 1055.505 281, 1056 281.961, 1056 284 C 1056 285.650, 1056.413 287, 1056.917 287 C 1057.426 287, 1057.890 280.434, 1057.960 272.250 C 1058.029 264.137, 1058.225 256.304, 1058.395 254.842 C 1058.662 252.554, 1058.273 252.113, 1055.602 251.678 C 1051.840 251.064, 955.915 250.961, 954.500 251.569 M 926.355 303.500 C 926.352 308.450, 926.521 310.601, 926.731 308.280 C 926.940 305.959, 926.943 301.909, 926.736 299.280 C 926.530 296.651, 926.358 298.550, 926.355 303.500 M 873 317.074 C 863.925 318.060, 855.375 318.949, 854 319.050 C 852.269 319.176, 852.035 319.372, 853.239 319.687 C 855.441 320.264, 886.637 317.223, 890.565 316.049 C 894.595 314.845, 892.245 314.982, 873 317.074 M 897 325.062 C 887.925 326.059, 874.451 327.155, 867.059 327.497 C 859.666 327.839, 853.227 328.360, 852.750 328.654 C 851.468 329.447, 853.009 335.276, 854.881 336.719 C 857.210 338.514, 863.979 338.025, 864.079 336.054 C 864.131 335.024, 864.328 334.921, 864.662 335.750 C 864.940 336.438, 865.565 337, 866.052 337 C 866.539 337, 866.696 336.371, 866.400 335.601 C 866.105 334.832, 866.344 333.905, 866.932 333.542 C 867.519 333.179, 868 333.414, 868 334.063 C 868 334.936, 868.398 334.914, 869.523 333.981 C 870.810 332.913, 870.960 333.010, 870.492 334.609 C 870.121 335.875, 870.329 335.757, 871.122 334.250 C 871.773 333.012, 872.687 332, 873.153 332 C 873.619 332, 874 331.400, 874 330.667 C 874 329.933, 874.675 329.333, 875.500 329.333 C 876.325 329.333, 877 329.960, 877 330.726 C 877 331.523, 876.507 331.813, 875.845 331.405 C 875.146 330.972, 874.962 331.129, 875.378 331.802 C 876.484 333.592, 878.833 332.076, 878.272 329.934 C 877.797 328.118, 877.940 328.087, 880.560 329.447 C 883.044 330.735, 883.485 330.718, 884.525 329.297 C 885.276 328.269, 885.928 328.075, 886.348 328.755 C 886.708 329.336, 887.902 329.577, 889.001 329.289 C 890.163 328.986, 891 329.259, 891 329.942 C 891 330.589, 890.550 330.840, 890 330.500 C 889.450 330.160, 889 330.359, 889 330.941 C 889 332.350, 890.316 332.284, 891.800 330.800 C 892.733 329.867, 893.009 329.922, 893.039 331.050 C 893.061 331.848, 893.714 331.038, 894.491 329.250 C 895.836 326.156, 898 324.804, 898 327.059 C 898 327.641, 897.480 327.797, 896.845 327.405 C 896.156 326.979, 895.961 327.129, 896.362 327.776 C 897.194 329.123, 901.596 328.396, 904.369 326.454 C 905.511 325.654, 908.257 325.007, 910.473 325.015 C 913.590 325.027, 914.161 325.270, 913 326.091 C 911.667 327.034, 911.667 327.102, 913 326.701 C 913.825 326.453, 914.388 325.747, 914.252 325.132 C 913.925 323.653, 917.322 324.217, 919.652 326.029 C 921.359 327.356, 921.354 327.295, 919.595 325.233 C 917.413 322.675, 918.640 322.684, 897 325.062 M 832.500 329.674 C 830.850 329.880, 828.457 330.279, 827.183 330.560 C 824.882 331.068, 824.888 331.093, 828.050 334.047 C 832.015 337.751, 839.990 339.244, 840.015 336.287 C 840.028 334.767, 840.176 334.725, 841 336 C 841.710 337.099, 841.973 336.362, 841.985 333.250 C 842 329.088, 841.933 329.003, 838.750 329.150 C 836.962 329.232, 834.150 329.468, 832.500 329.674 M 606.365 350.500 C 606.368 356, 606.536 358.122, 606.738 355.216 C 606.941 352.311, 606.939 347.811, 606.734 345.216 C 606.528 342.622, 606.363 345, 606.365 350.500 M 678 345.552 C 678.825 345.729, 681.574 346.144, 684.108 346.476 C 688.168 347.008, 688.686 347.352, 688.465 349.365 C 688.188 351.895, 690.691 352.331, 693.259 350.200 C 694.043 349.550, 695.052 349.351, 695.501 349.759 C 695.951 350.166, 696.053 349.756, 695.728 348.848 C 694.957 346.690, 695.857 345.868, 697.881 346.880 C 698.790 347.334, 701.475 347.142, 704 346.443 C 708.077 345.313, 706.998 345.198, 692.500 345.214 C 683.700 345.224, 677.175 345.376, 678 345.552 M 843.828 356.250 C 843.590 358.038, 843.669 377.275, 844.003 399 C 844.338 420.725, 844.699 435.950, 844.806 432.833 C 844.923 429.407, 845.484 427.005, 846.224 426.759 C 846.901 426.533, 847.729 423.703, 848.077 420.425 C 848.630 415.216, 848.745 415.829, 849.032 425.500 L 849.358 436.500 850.047 421 C 850.425 412.475, 850.795 393.688, 850.868 379.250 L 851 353 847.631 353 C 844.585 353, 844.220 353.312, 843.828 356.250 M 510 429.947 C 506.838 430.677, 506.715 430.826, 508.726 431.488 C 510.511 432.076, 510.759 432.582, 509.976 434.045 C 509.439 435.048, 509 436.606, 509 437.507 C 509 438.915, 509.371 438.854, 511.635 437.073 C 513.084 435.933, 514.772 435.002, 515.385 435.004 C 515.998 435.006, 515.087 435.869, 513.361 436.922 C 511.634 437.975, 510.022 439.435, 509.778 440.168 C 509.123 442.137, 493.760 442.405, 457.500 441.080 C 426.766 439.957, 396.051 437.807, 384.500 435.969 C 377.906 434.921, 375.432 434.766, 376.111 435.444 C 376.355 435.688, 381.942 436.641, 388.527 437.561 C 395.112 438.482, 400.950 439.784, 401.500 440.455 C 402.050 441.126, 403.175 441.973, 404 442.337 C 404.825 442.700, 401.225 442.804, 396 442.568 C 388.301 442.221, 387.452 442.308, 391.523 443.029 C 404.184 445.271, 435.705 447.127, 470.673 447.689 C 508.227 448.293, 508.855 448.337, 509.389 450.381 C 509.731 451.687, 509.338 452.791, 508.329 453.356 C 506.148 454.576, 493.148 466.098, 484 474.920 C 479.875 478.897, 478.075 481.070, 480 479.747 C 481.925 478.425, 484.335 477.533, 485.355 477.765 C 486.988 478.136, 486.808 478.626, 483.855 481.842 C 480.756 485.217, 480.729 485.300, 483.500 482.928 C 485.150 481.516, 492.641 474.903, 500.146 468.234 L 513.793 456.107 519.475 456.303 C 524.740 456.486, 525.372 456.260, 528.079 453.234 C 530.344 450.701, 531 449.007, 531 445.684 C 531 443.328, 530.438 440.769, 529.750 439.998 C 528.687 438.806, 528.761 438.794, 530.250 439.921 C 531.212 440.649, 532 441.838, 532 442.563 C 532 443.289, 532.421 444.142, 532.936 444.460 C 533.500 444.809, 533.561 443.938, 533.090 442.269 C 532.660 440.746, 532.490 438.971, 532.713 438.323 C 532.935 437.676, 531.740 436.129, 530.057 434.884 C 527.926 433.308, 527.367 432.391, 528.219 431.865 C 528.892 431.449, 529.193 430.860, 528.889 430.556 C 527.907 429.574, 513.609 429.113, 510 429.947 M 469.345 463.494 C 465.817 464.981, 465.400 465.949, 464.608 474.500 C 463.997 481.089, 464.555 480.849, 465.910 473.942 C 466.508 470.893, 466.815 470.341, 466.890 472.183 C 466.964 473.983, 467.700 475.087, 469.127 475.540 C 471.035 476.146, 471.196 476.741, 470.700 481.358 C 470.264 485.410, 470.359 485.970, 471.151 484 C 472.503 480.635, 473.950 466.033, 473.144 463.883 C 472.572 462.355, 472.149 462.312, 469.345 463.494 M 1079.684 549.389 C 1077.585 550.170, 1074.997 551.597, 1073.934 552.560 C 1072.870 553.522, 1072 553.990, 1072 553.598 C 1072 552.306, 1067.746 555.838, 1065.863 558.695 C 1064.845 560.238, 1064.010 561.130, 1064.007 560.679 C 1064.003 560.227, 1063.296 560.561, 1062.436 561.421 C 1061.576 562.281, 1061.153 563.438, 1061.495 563.992 C 1061.838 564.547, 1061.593 565, 1060.952 565 C 1060.311 565, 1060.024 565.620, 1060.315 566.378 C 1060.606 567.136, 1060.316 568.288, 1059.672 568.937 C 1058.772 569.844, 1060.164 569.996, 1065.682 569.595 C 1069.632 569.307, 1073.971 568.795, 1075.323 568.455 C 1079.045 567.521, 1081.520 572.383, 1077.906 573.530 C 1076.858 573.863, 1076 574.504, 1076 574.956 C 1076 575.408, 1075.438 575.757, 1074.750 575.731 C 1071.338 575.605, 1069.933 576.082, 1070.590 577.146 C 1071.093 577.959, 1070.456 578.095, 1068.399 577.615 C 1066.756 577.232, 1066.038 577.301, 1066.741 577.773 C 1067.561 578.324, 1065.913 579.352, 1061.891 580.799 C 1058.540 582.005, 1053.949 584.456, 1051.687 586.246 C 1049.426 588.036, 1047.974 588.825, 1048.460 588 C 1049.084 586.940, 1048.757 587.013, 1047.343 588.250 C 1046.243 589.212, 1044.617 590, 1043.730 590 C 1041.622 590, 1041.086 591.048, 1041.960 593.456 C 1042.665 595.397, 1042.679 595.397, 1043.805 593.456 C 1044.429 592.380, 1044.953 591.950, 1044.970 592.500 C 1044.987 593.081, 1048.040 593.461, 1052.250 593.407 C 1062 593.282, 1077.436 589.216, 1102.781 580.097 C 1115.037 575.687, 1118.108 574.287, 1119.235 572.600 C 1119.718 571.877, 1119.975 571.992, 1119.985 572.939 C 1119.995 573.952, 1120.600 573.733, 1122.031 572.197 C 1123.679 570.428, 1123.902 569.404, 1123.215 566.759 C 1122.386 563.571, 1122.246 563.500, 1116.784 563.500 C 1113.713 563.500, 1111.378 563.790, 1111.595 564.145 C 1112.036 564.868, 1109.464 566.038, 1107.668 565.930 C 1107.026 565.891, 1107.400 565.452, 1108.500 564.953 C 1109.926 564.307, 1109.423 564.216, 1106.750 564.635 C 1103.401 565.160, 1103 564.994, 1103 563.080 C 1103 561.901, 1103.672 560.679, 1104.494 560.364 C 1105.316 560.048, 1105.757 559.415, 1105.473 558.957 C 1105.190 558.498, 1105.755 557.659, 1106.729 557.092 C 1107.703 556.525, 1107.938 556.047, 1107.250 556.030 C 1106.563 556.014, 1106 555.183, 1106 554.185 C 1106 549.564, 1088.017 546.286, 1079.684 549.389 M 994 573.637 C 959.218 583.715, 842.389 611.263, 829.500 612.425 C 825.259 612.808, 827.018 612.236, 835.500 610.474 C 857.064 605.995, 866.522 603.703, 865.250 603.264 C 864.563 603.027, 863.998 602.308, 863.995 601.667 C 863.992 600.904, 861.310 600.400, 856.245 600.210 C 851.985 600.050, 847.600 599.776, 846.500 599.601 C 845.400 599.426, 844.246 599.673, 843.936 600.149 C 843.626 600.625, 841.018 601.223, 838.141 601.477 C 835.264 601.730, 832.410 602.246, 831.800 602.623 C 831.129 603.038, 830.973 602.853, 831.405 602.155 C 831.797 601.520, 831.668 601, 831.118 601 C 830.568 601, 829.874 601.396, 829.575 601.879 C 829.276 602.362, 827.562 602.610, 825.766 602.429 C 823.970 602.248, 820.362 602.361, 817.750 602.679 C 813.865 603.152, 813 603.621, 813 605.251 C 813 606.978, 812.766 607.071, 811.250 605.947 C 810.288 605.233, 811.658 606.826, 814.295 609.487 C 816.933 612.148, 818.691 614.590, 818.203 614.913 C 817.714 615.236, 817.050 616.850, 816.727 618.500 C 816.404 620.150, 815.817 622.400, 815.423 623.500 C 814.907 624.939, 815.018 625.215, 815.820 624.483 C 816.433 623.923, 817.354 621.673, 817.867 619.483 C 818.621 616.260, 818.818 616.018, 818.900 618.212 C 818.955 619.704, 818.061 623.436, 816.912 626.505 C 814.345 633.365, 815.228 635.189, 820.535 633.992 C 822.464 633.557, 824.257 633.607, 824.564 634.104 C 824.869 634.597, 825.879 634.993, 826.809 634.985 C 828.075 634.973, 828.175 634.763, 827.207 634.149 C 826.388 633.630, 829.869 632.271, 836.707 630.442 C 842.643 628.854, 847.837 627.655, 848.250 627.777 C 848.663 627.900, 849 627.623, 849 627.162 C 849 626.701, 851.099 626.245, 853.665 626.148 C 856.230 626.051, 858.853 625.537, 859.493 625.006 C 860.659 624.038, 863.970 623.214, 867.250 623.074 C 868.212 623.033, 869 622.325, 869 621.500 C 869 619.684, 870.635 619.509, 871.338 621.250 C 871.630 621.975, 871.875 621.740, 871.921 620.691 C 871.964 619.696, 872.450 619.160, 873 619.500 C 873.550 619.840, 874 619.667, 874 619.116 C 874 618.566, 874.900 618.288, 876 618.500 C 877.117 618.715, 878 618.347, 878 617.666 C 878 616.821, 875.539 616.400, 869.985 616.294 C 864.064 616.181, 862.154 616.450, 862.677 617.321 C 863.216 618.220, 863.042 618.224, 861.942 617.338 C 860.223 615.954, 855.008 616.075, 854.985 617.500 C 854.977 618.050, 854.589 617.901, 854.125 617.168 C 853.589 616.322, 852.133 616.017, 850.140 616.331 C 848.413 616.603, 847 616.415, 847 615.913 C 847 615.411, 846.523 615, 845.941 615 C 845.359 615, 845.190 615.498, 845.566 616.107 C 846.023 616.847, 845.568 616.998, 844.195 616.562 C 843.064 616.203, 839.520 616.581, 836.319 617.402 C 829.764 619.083, 819.229 620.569, 820.017 619.702 C 820.301 619.389, 825.026 618.215, 830.517 617.093 C 854.178 612.258, 978.631 580.073, 996.506 574.166 C 1007.401 570.566, 1005.781 570.223, 994 573.637 M 760.500 598.601 C 758.300 599.404, 754.371 601.172, 751.768 602.530 C 746.411 605.327, 745.565 605.528, 746.633 603.750 C 747.130 602.923, 746.803 602.971, 745.668 603.893 C 744.724 604.658, 744.192 605.525, 744.485 605.818 C 745.154 606.487, 740.989 611, 739.703 611 C 739.182 611, 739.373 610.212, 740.128 609.250 C 741.361 607.677, 741.329 607.634, 739.809 608.823 C 738.880 609.551, 738.365 610.788, 738.666 611.573 C 739.027 612.514, 738.537 613, 737.229 613 C 735.142 613, 732.671 615.220, 733.509 616.342 C 733.779 616.704, 733.716 616.791, 733.369 616.535 C 733.021 616.280, 731.796 616.730, 730.646 617.535 C 729.496 618.341, 727.643 619.007, 726.527 619.015 C 724.827 619.028, 724.742 619.199, 726 620.074 C 727.097 620.838, 726.291 620.969, 723 620.562 C 720.107 620.205, 719.213 620.309, 720.496 620.853 C 722.110 621.537, 721.603 621.832, 717.852 622.395 C 715.299 622.778, 712.151 622.911, 710.855 622.691 C 709.560 622.471, 709.175 622.530, 710 622.820 C 711.612 623.389, 705.076 624.722, 684.500 628.021 C 677.350 629.167, 669.650 630.519, 667.389 631.026 C 665.128 631.532, 660.853 632.186, 657.889 632.480 C 649.515 633.309, 610.971 638.903, 606.500 639.938 C 604.300 640.448, 595.975 641.846, 588 643.046 C 580.025 644.246, 572.712 645.630, 571.750 646.122 C 570.538 646.742, 569.995 646.630, 569.985 645.758 C 569.973 644.825, 569.746 644.853, 569.106 645.863 C 568.552 646.737, 568.109 646.834, 567.871 646.133 C 567.452 644.898, 560 645.762, 560 647.046 C 560 647.477, 562.138 647.829, 564.750 647.829 C 576.431 647.826, 577.237 647.940, 576.638 649.500 C 576.282 650.430, 576.643 651, 577.590 651 C 578.431 651, 578.843 650.555, 578.507 650.011 C 578.152 649.437, 578.570 649.282, 579.506 649.640 C 580.391 649.980, 580.880 650.870, 580.593 651.617 C 580.307 652.364, 580.393 652.889, 580.786 652.782 C 581.179 652.676, 582.940 653.356, 584.700 654.294 C 588.483 656.310, 592.075 656.487, 593.947 654.750 C 595.037 653.738, 595.139 653.770, 594.483 654.920 C 593.881 655.975, 594.100 656.176, 595.336 655.701 C 596.251 655.350, 597 655.456, 597 655.936 C 597 657.250, 625.351 655.216, 630.111 653.561 C 633.350 652.435, 656.652 649.973, 659.447 650.461 C 661.647 650.846, 661.949 650.761, 660.528 650.156 C 658.737 649.395, 658.805 649.270, 661.278 648.798 C 662.775 648.512, 664 648.665, 664 649.139 C 664 649.612, 665.013 649.968, 666.250 649.930 C 668.410 649.862, 668.420 649.822, 666.500 648.933 C 665.085 648.278, 665.817 648.169, 669 648.562 C 672.497 648.994, 673.166 648.864, 672 647.978 C 670.800 647.066, 671.046 646.957, 673.232 647.434 C 674.735 647.761, 677.885 647.714, 680.232 647.329 C 684.119 646.690, 684.277 646.557, 682 645.832 C 680.428 645.332, 681.542 645.224, 685 645.542 C 689.145 645.922, 690.131 645.776, 689 644.949 C 687.859 644.113, 688.458 643.997, 691.500 644.462 C 694.581 644.934, 695.155 644.817, 694 643.954 C 692.834 643.084, 693.340 642.951, 696.272 643.358 C 698.763 643.704, 699.825 643.525, 699.397 642.834 C 698.966 642.136, 699.878 642.009, 702.125 642.454 C 704.771 642.977, 705.176 642.875, 704 641.980 C 702.801 641.067, 703.054 640.959, 705.263 641.441 C 708.769 642.207, 721.109 639.985, 720.332 638.728 C 719.996 638.185, 720.610 638.059, 721.782 638.431 C 722.900 638.786, 728.243 638.202, 733.657 637.133 C 748.389 634.226, 751.574 633.747, 750.766 634.562 C 750.362 634.969, 750.772 635.844, 751.677 636.506 C 753.060 637.517, 752.139 637.977, 745.921 639.382 C 741.849 640.301, 736.835 641.323, 734.777 641.652 C 732.720 641.981, 731.291 642.662, 731.602 643.165 C 731.928 643.693, 731.012 643.790, 729.435 643.394 C 727.381 642.879, 726.894 643.020, 727.476 643.961 C 728.066 644.916, 727.477 645.044, 725 644.500 C 722.753 644.006, 721.958 644.123, 722.425 644.878 C 722.881 645.617, 722.033 645.807, 719.800 645.466 C 717.208 645.070, 716.929 645.165, 718.500 645.911 L 720.500 646.859 718.500 646.943 C 717.400 646.990, 715.375 647.255, 714 647.534 C 711.751 647.990, 711.701 647.936, 713.500 647 C 715.299 646.064, 715.249 646.010, 713 646.466 C 711.625 646.745, 709.911 646.979, 709.191 646.986 C 708.471 646.994, 708.190 647.498, 708.566 648.107 C 709.043 648.878, 708.227 649.012, 705.875 648.546 C 703.226 648.022, 702.823 648.125, 704 649.022 C 705.175 649.918, 704.632 650.045, 701.500 649.611 C 699.247 649.299, 698.074 649.415, 698.815 649.878 C 699.666 650.409, 698.077 651.101, 694.315 651.837 C 678.496 654.933, 670.810 655.999, 668.280 655.446 C 666.040 654.956, 665.791 655.064, 667 656 C 668.180 656.914, 667.541 657.047, 664 656.625 C 661.525 656.330, 660.331 656.427, 661.347 656.841 C 663.084 657.549, 658.220 658.854, 647.500 660.556 C 638.667 661.958, 624.451 665.409, 623.501 666.382 C 622.711 667.191, 622.732 668.140, 623.578 669.813 C 624.221 671.085, 625.029 672.098, 625.374 672.063 C 627.855 671.813, 629.034 672.136, 628.543 672.931 C 628.226 673.443, 628.425 674.144, 628.984 674.490 C 630.297 675.302, 630.311 680, 629 680 C 628.450 680, 628 680.512, 628 681.138 C 628 681.939, 629.897 682.082, 634.393 681.621 C 641.800 680.862, 655.193 681.879, 654.413 683.141 C 654.121 683.613, 654.385 684, 655 684 C 655.615 684, 655.840 684.450, 655.500 685 C 655.160 685.550, 653.671 686.007, 652.191 686.015 C 650.013 686.028, 649.786 686.234, 651 687.096 C 652.147 687.911, 651.827 688.014, 649.645 687.535 C 648.074 687.191, 644.699 687.234, 642.145 687.632 C 638.204 688.245, 637.879 688.454, 640 689.008 C 642.449 689.648, 642.435 689.676, 639.307 690.397 C 637.186 690.887, 636.290 691.593, 636.639 692.502 C 637.392 694.465, 648.698 699.653, 654 700.468 C 656.475 700.849, 659.850 701.377, 661.500 701.642 C 668.491 702.766, 680 701.690, 680 699.912 C 680 699.410, 680.337 699.073, 680.750 699.161 C 682.217 699.477, 687 697.032, 687 695.966 C 687 695.370, 687.387 695.121, 687.859 695.413 C 689.080 696.168, 693.511 690.923, 695.958 685.825 C 697.101 683.446, 698.590 680.700, 699.268 679.722 C 700.267 678.279, 700.222 677.770, 699.028 677.025 C 697.732 676.217, 697.732 676.041, 699.028 675.554 C 699.838 675.249, 701.850 674.832, 703.500 674.627 C 707.297 674.154, 709.367 673.782, 738.500 668.332 C 767.047 662.992, 769.652 662.557, 769 663.242 C 768.725 663.530, 762.425 665.044, 755 666.606 C 747.575 668.168, 742.321 669.610, 743.323 669.811 C 744.501 670.046, 744.936 670.725, 744.551 671.729 C 744.071 672.977, 744.234 673.050, 745.380 672.100 C 746.448 671.213, 746.902 671.206, 747.190 672.070 C 747.402 672.705, 749.133 673.217, 751.037 673.208 C 756.977 673.179, 781.500 671.358, 781.500 670.946 C 781.500 670.861, 783.975 670.674, 787 670.529 C 790.025 670.384, 793.850 669.694, 795.500 668.994 C 797.150 668.294, 800.807 667.660, 803.627 667.585 C 806.447 667.510, 809.414 666.902, 810.219 666.233 C 811.025 665.564, 812.052 665.351, 812.502 665.759 C 812.952 666.166, 812.998 665.939, 812.604 665.254 C 812.154 664.473, 812.828 663.580, 814.412 662.858 C 815.801 662.225, 816.654 661.211, 816.308 660.604 C 815.962 659.997, 816.037 659.823, 816.474 660.217 C 816.910 660.612, 818.360 660.075, 819.695 659.025 C 821.030 657.975, 824.682 656.610, 827.811 655.992 C 830.940 655.373, 837.100 654.022, 841.500 652.988 C 845.900 651.954, 851.075 650.830, 853 650.491 C 856.162 649.933, 872.383 646.228, 888.722 642.331 C 892.144 641.515, 895.969 641.136, 897.222 641.489 C 899.080 642.013, 899.224 641.919, 898 640.981 C 896.815 640.073, 897.235 639.954, 900 640.414 C 901.925 640.735, 902.942 640.637, 902.261 640.196 C 901.498 639.703, 904.381 638.511, 909.761 637.095 C 922.632 633.706, 923.168 633.599, 927.232 633.597 C 929.285 633.597, 930.508 633.314, 929.950 632.969 C 929.392 632.624, 934.462 630.849, 941.218 629.025 C 960.757 623.747, 990.777 615.339, 1003.461 611.591 C 1008.390 610.134, 1014.387 607.791, 1016.787 606.384 C 1019.188 604.978, 1023.481 602.998, 1026.326 601.986 L 1031.500 600.146 1023.750 600.073 C 1019.126 600.029, 1016 599.583, 1016 598.966 C 1016 598.395, 1014.769 598.134, 1013.250 598.384 C 1011.737 598.632, 1009.911 598.873, 1009.191 598.918 C 1008.471 598.963, 1008.089 599.337, 1008.343 599.750 C 1008.597 600.163, 1006.711 600.500, 1004.152 600.500 C 998.128 600.500, 994.377 601.318, 958.503 610.454 C 940.230 615.107, 927.527 617.867, 926.003 617.516 C 924.001 617.055, 923.801 617.163, 925 618.054 C 926.164 618.918, 925.715 619.038, 923 618.586 C 920.864 618.230, 920.024 618.340, 920.845 618.869 C 922.642 620.027, 917.675 621.317, 914.665 620.475 C 913.104 620.038, 912.886 620.136, 913.883 620.826 C 915.700 622.083, 910.028 623.426, 906.772 622.509 C 904.925 621.989, 904.780 622.082, 906 623.009 C 907.169 623.898, 906.617 624.015, 903.500 623.538 C 900.416 623.066, 899.844 623.183, 901 624.047 C 902.168 624.920, 901.725 625.039, 899 624.586 C 896.334 624.142, 895.857 624.261, 897 625.086 C 898.149 625.915, 897.728 626.035, 895.200 625.599 C 893.385 625.286, 892.145 625.425, 892.443 625.908 C 893.183 627.105, 888.341 628.224, 885.665 627.475 C 884.286 627.089, 883.953 627.186, 884.747 627.742 C 886.443 628.928, 873.453 631.993, 869.500 631.340 C 867.103 630.943, 866.802 631.073, 868 631.982 C 869.176 632.875, 868.743 632.987, 866 632.500 C 863.248 632.011, 862.821 632.123, 864 633.024 C 865.182 633.926, 864.758 634.045, 862 633.586 C 859.344 633.143, 858.862 633.262, 860 634.080 C 861.180 634.927, 860.914 635.063, 858.750 634.717 C 857.237 634.475, 856 634.714, 856 635.247 C 856 635.793, 854.799 635.938, 853.250 635.578 C 851.471 635.165, 850.976 635.257, 851.849 635.840 C 853.611 637.016, 846.784 638.384, 843.831 637.446 C 842.343 636.974, 841.964 637.132, 842.500 638 C 843.059 638.905, 842.391 639.044, 839.875 638.546 C 837.381 638.053, 836.892 638.152, 838 638.924 C 839.333 639.853, 839.333 639.973, 838 639.998 C 837.175 640.014, 835.375 640.255, 834 640.534 C 831.751 640.990, 831.701 640.936, 833.500 640 C 835.299 639.064, 835.249 639.010, 833 639.466 C 831.625 639.745, 829.686 639.979, 828.691 639.986 C 827.695 639.994, 827.171 640.468, 827.525 641.040 C 827.943 641.717, 827.177 641.863, 825.334 641.459 C 823.299 641.013, 822.900 641.119, 823.920 641.833 C 824.941 642.548, 824.140 642.766, 821.068 642.608 C 818.263 642.464, 816.472 641.807, 815.849 640.694 C 815.327 639.762, 814.093 639, 813.105 639 C 810.941 639, 808 642.036, 808 644.270 C 808 645.890, 806.361 647.417, 804.500 647.530 C 803.950 647.564, 803.595 648.079, 803.710 648.676 C 804.009 650.219, 800.333 653.313, 797.713 653.723 C 793.905 654.320, 782.382 654.887, 784.750 654.361 C 785.987 654.086, 787 653.484, 787 653.024 C 787 652.564, 787.970 652.441, 789.156 652.751 C 790.774 653.174, 791.108 652.983, 790.492 651.988 C 789.900 651.028, 790.124 650.833, 791.300 651.285 C 792.421 651.715, 793.590 650.911, 795.051 648.705 C 797.138 645.553, 797.139 645.539, 795.087 647.861 C 793.939 649.159, 793.012 649.834, 793.027 649.361 C 793.042 648.887, 794.279 647.132, 795.777 645.461 C 797.275 643.790, 798.050 643.088, 797.500 643.903 C 796.762 644.996, 796.826 645.188, 797.745 644.636 C 798.429 644.225, 799.487 642.959, 800.094 641.824 C 800.931 640.259, 800.913 639.936, 800.017 640.489 C 799.331 640.914, 799.516 639.902, 800.460 638.077 C 801.354 636.349, 802.485 635.182, 802.973 635.484 C 803.462 635.786, 804.187 635.506, 804.585 634.862 C 805.063 634.088, 804.873 633.960, 804.025 634.485 C 803.169 635.014, 802.895 634.815, 803.204 633.889 C 803.458 633.125, 804.154 632.500, 804.750 632.500 C 805.346 632.500, 806.208 632.090, 806.667 631.590 C 807.159 631.052, 806.935 631.007, 806.120 631.479 C 805.171 632.029, 804.898 631.845, 805.245 630.889 C 805.523 630.125, 806.290 629.624, 806.949 629.775 C 807.609 629.926, 807.869 629.598, 807.528 629.045 C 806.692 627.692, 808.856 623.793, 810.039 624.524 C 810.569 624.852, 810.691 624.357, 810.319 623.388 C 809.875 622.231, 810.038 621.905, 810.819 622.388 C 811.514 622.818, 811.816 622.583, 811.573 621.802 C 811.352 621.086, 810.912 618.339, 810.597 615.698 C 810.184 612.235, 810.343 611.094, 811.167 611.603 C 811.876 612.041, 812.035 611.865, 811.585 611.138 C 811.187 610.494, 810.469 610.210, 809.989 610.507 C 809.509 610.803, 807.725 609.686, 806.024 608.023 C 804.323 606.360, 802.272 605, 801.466 605 C 800.659 605, 800 604.578, 800 604.062 C 800 603.546, 799.212 603.155, 798.250 603.192 C 795.999 603.280, 792.206 602.458, 788.853 601.156 C 787.397 600.590, 785.934 600.399, 785.603 600.731 C 785.271 601.062, 785 600.819, 785 600.191 C 785 599.452, 784.206 599.313, 782.750 599.797 C 779.557 600.857, 777.512 600.670, 775.679 599.149 C 774.804 598.422, 773.548 598.161, 772.889 598.568 C 772.131 599.037, 771.953 598.885, 772.405 598.155 C 772.886 597.376, 772.102 597, 770 597 C 768.285 597, 767.102 597.357, 767.372 597.792 C 767.641 598.228, 766.886 598.658, 765.693 598.748 C 763.976 598.878, 763.834 598.716, 765.013 597.971 C 767.140 596.626, 765.149 596.904, 760.500 598.601 M 223 621.550 C 223 622.643, 222.467 623.010, 221.448 622.618 C 220.558 622.277, 220.157 622.445, 220.507 623.011 C 220.843 623.555, 220.622 624, 220.015 624 C 219.409 624, 219.045 624.788, 219.206 625.750 C 219.368 626.712, 219.050 627.431, 218.500 627.346 C 217.950 627.261, 216.920 627.823, 216.211 628.596 C 215.152 629.749, 215.182 630, 216.377 630 C 217.178 630, 218.009 630.527, 218.224 631.171 C 218.439 631.816, 219.580 632.414, 220.761 632.501 C 222.058 632.596, 222.652 632.232, 222.262 631.579 C 221.907 630.986, 222.377 631.118, 223.308 631.872 C 224.590 632.912, 225 632.943, 225 632 C 225 631.007, 225.303 631.007, 226.500 632 C 227.618 632.928, 228 632.944, 228 632.063 C 228 631.414, 228.450 631.160, 229 631.500 C 229.550 631.840, 230 631.390, 230 630.500 C 230 629.578, 230.473 629.174, 231.100 629.562 C 231.892 630.051, 231.889 629.662, 231.090 628.169 C 230.181 626.470, 230.357 625.745, 232.066 624.153 C 233.225 623.074, 233.720 621.945, 233.180 621.611 C 232.646 621.281, 231.952 621.684, 231.636 622.506 C 231.321 623.328, 230.572 624, 229.972 624 C 229.373 624, 229.207 623.474, 229.605 622.830 C 230.080 622.061, 229.798 621.864, 228.779 622.255 C 227.927 622.582, 226.278 622.183, 225.115 621.368 C 223.216 620.038, 223 620.056, 223 621.550 M 511 621.100 C 508.525 621.606, 505.938 622.090, 505.250 622.177 C 504.563 622.263, 504 622.652, 504 623.042 C 504 623.431, 502.762 624.011, 501.250 624.329 C 497.347 625.152, 492.509 629.690, 492.454 632.581 C 492.413 634.675, 492.883 635.013, 495.954 635.100 C 499.978 635.214, 495.659 636.310, 474.500 640.542 L 462.500 642.943 478 642.400 C 486.525 642.102, 494.288 641.634, 495.250 641.361 C 496.212 641.088, 497 641.346, 497 641.933 C 497 642.520, 496.108 643, 495.018 643 C 493.321 643, 493.538 643.517, 496.524 646.592 C 499.896 650.065, 507.448 653.092, 511.004 652.397 C 520.846 650.475, 523.620 649.176, 528.632 644.147 C 530.905 641.866, 533.268 640, 533.882 640 C 539.291 640, 524.583 621.451, 518.500 620.601 C 516.850 620.370, 513.475 620.595, 511 621.100 M 738.500 661.157 C 717.199 665.224, 714.053 665.655, 713.635 664.562 C 713.409 663.970, 712.481 664.386, 711.541 665.500 C 710.612 666.600, 710.176 666.825, 710.573 666 C 711.158 664.783, 711.040 664.736, 709.947 665.750 C 708.268 667.308, 706.640 667.391, 707.580 665.870 C 707.981 665.222, 707.761 664.913, 707.064 665.145 C 706.396 665.368, 705.877 665.989, 705.910 666.525 C 705.943 667.061, 704.514 668.028, 702.735 668.674 C 697.135 670.706, 701.496 670.111, 718.260 666.556 C 727.192 664.661, 738.775 662.232, 744 661.158 C 749.225 660.084, 752.375 659.215, 751 659.227 C 749.625 659.238, 744 660.107, 738.500 661.157 M 407.850 675.556 C 402.776 676.850, 398.463 679.369, 395.359 682.851 C 394.182 684.172, 392.792 684.990, 392.271 684.667 C 391.749 684.345, 390.322 685.861, 389.099 688.037 C 387.786 690.374, 385.878 692.244, 384.438 692.605 C 380.744 693.532, 381.520 694.991, 385.750 695.070 C 388.758 695.127, 389.104 695.311, 387.500 696 C 386.143 696.583, 387.991 696.882, 393.250 696.930 C 397.703 696.970, 401 697.425, 401 698 C 401 698.550, 401.765 699, 402.700 699 C 406.551 699, 402.066 701.070, 396.437 701.891 C 391.676 702.585, 391.193 702.803, 394 702.994 C 396.089 703.136, 396.694 703.402, 395.500 703.655 C 394.400 703.888, 392.469 704.299, 391.209 704.568 C 389.706 704.890, 389.185 705.478, 389.694 706.279 C 390.120 706.951, 390.476 707.837, 390.485 708.250 C 390.493 708.663, 390.725 708.947, 391 708.882 C 391.275 708.816, 394.438 710.378, 398.029 712.352 C 411.196 719.589, 423.439 718.985, 432.429 710.653 C 435.938 707.401, 438 700.987, 438 693.325 C 438 686.206, 436.457 682.291, 432.389 679.092 C 427.307 675.094, 416.030 673.469, 407.850 675.556" stroke="none" fill="#13b8f5" fill-rule="evenodd"/><path d="M 361 248.120 C 343.324 249.259, 333.501 250.675, 320.514 253.955 C 298.775 259.445, 282.473 267.676, 268.067 280.436 C 247.499 298.653, 237.288 318.198, 235.121 343.500 C 231.531 385.403, 254.193 419.825, 299.286 440.961 C 325.443 453.221, 350.912 460.073, 405.500 469.534 C 426.867 473.238, 433 476.245, 433 483.020 C 433 488.085, 430.056 491.471, 423.737 493.674 C 419.180 495.263, 415.252 495.491, 393.500 495.427 C 364.689 495.343, 352.529 493.727, 329.471 486.919 C 309.258 480.952, 296.223 475.001, 282.202 465.340 C 278.738 462.953, 275.571 461, 275.164 461 C 273.852 461, 265.879 469.833, 235.901 504.500 C 199.092 547.067, 197 549.540, 197 550.498 C 197 551.578, 199.029 553.132, 210.146 560.564 C 247.837 585.763, 302.751 598.962, 370 598.987 C 455.841 599.018, 513.604 579.816, 541.433 542 C 553.266 525.919, 558.631 509.860, 559.677 487.389 C 560.650 466.497, 557.699 451.912, 549.224 435.739 C 538.228 414.752, 517.572 399.658, 484.760 388.634 C 472.002 384.347, 436.822 375.586, 408 369.518 C 375.175 362.607, 368.866 360.074, 366.065 352.681 C 363.572 346.101, 368.297 340.850, 378.275 339.113 C 382.706 338.341, 418.649 338, 495.582 338 L 606.500 338 606.500 458.534 L 606.500 579.068 659.434 579.017 C 688.547 578.989, 712.512 578.821, 712.689 578.644 C 713.009 578.325, 713.317 426.524, 713.108 372.250 L 713 344 694 344 L 675 344 674.976 365.750 C 674.950 388.606, 674.473 392.550, 670.691 401.179 C 668.697 405.729, 668.278 406.170, 667.774 404.245 C 667.395 402.796, 667.563 402.230, 668.248 402.653 C 668.872 403.039, 669.015 402.834, 668.595 402.155 C 667.541 400.449, 666 400.753, 666 402.667 C 666 403.583, 665.736 404.070, 665.414 403.747 C 665.092 403.425, 665.596 399.707, 666.536 395.484 C 667.975 389.016, 668.173 383.885, 667.796 362.879 C 667.354 338.277, 667.375 337.945, 669.424 337.514 C 670.566 337.274, 672.400 336.888, 673.500 336.655 C 674.719 336.397, 674.262 336.187, 672.332 336.116 C 667.201 335.928, 666 336.827, 666 340.857 C 666 344.185, 665.762 344.493, 663.249 344.418 C 661.736 344.373, 659.479 343.792, 658.235 343.126 C 656.422 342.155, 656.024 342.172, 656.236 343.207 C 656.485 344.428, 655.820 344.508, 648.750 344.101 C 647.787 344.045, 647.112 343.494, 647.250 342.875 C 647.387 342.256, 646.875 341.523, 646.111 341.245 C 645.260 340.936, 644.992 341.178, 645.420 341.870 C 645.818 342.515, 645.484 343, 644.642 343 C 643.831 343, 643.009 342.526, 642.816 341.947 C 642.623 341.368, 640.898 340.524, 638.982 340.071 C 637.067 339.618, 634.865 339.079, 634.089 338.874 C 633.264 338.655, 632.370 339.540, 631.938 341 C 631.358 342.964, 631.178 343.082, 631.100 341.550 C 631.022 340.033, 630.733 339.867, 629.800 340.800 C 627.980 342.620, 625.975 342.273, 626.626 340.250 C 627.102 338.768, 627.021 338.730, 626.094 340 C 625.406 340.944, 624.722 341.129, 624.250 340.500 C 622.992 338.823, 619.545 336.382, 620.367 337.750 C 620.780 338.438, 620.679 339, 620.142 339 C 619.606 339, 618.988 338.465, 618.771 337.812 C 618.484 336.953, 617.763 337.052, 616.168 338.170 C 613.477 340.055, 609.268 339.420, 608.504 337.014 C 608.094 335.722, 606.930 335.263, 604.166 335.303 C 602.088 335.333, 599.964 335.116, 599.444 334.821 C 598.925 334.525, 596.925 334.409, 595 334.563 C 592.822 334.738, 590.774 334.212, 589.578 333.172 C 588.521 332.252, 587.954 332.011, 588.317 332.637 C 588.785 333.441, 587.107 333.733, 582.573 333.637 C 579.050 333.561, 576.202 333.275, 576.243 333 C 576.284 332.725, 575.975 331.719, 575.557 330.764 C 574.865 329.183, 574.631 329.227, 572.930 331.264 L 571.063 333.500 572.199 330.387 C 573.062 328.021, 573.834 327.367, 575.417 327.658 C 577.440 328.030, 577.443 328.016, 575.500 327.159 C 574.400 326.674, 572.938 326.488, 572.250 326.745 C 571.563 327.003, 571 326.716, 571 326.107 C 571 325.498, 572.013 324.959, 573.250 324.910 C 574.939 324.842, 574.662 324.578, 572.140 323.853 C 568.515 322.810, 566.637 323.526, 569.029 325.039 C 570.575 326.017, 570.245 326.154, 565.684 326.426 C 564.135 326.519, 562.646 326.236, 562.375 325.797 C 562.104 325.359, 563.146 324.971, 564.691 324.937 C 570.145 324.814, 563.806 323.216, 557.568 323.142 C 554.362 323.104, 551.523 322.857, 551.260 322.593 C 550.997 322.330, 577.911 322.083, 611.069 322.045 C 644.227 322.008, 671.577 321.757, 671.845 321.488 C 672.114 321.220, 617.246 320.988, 549.917 320.973 C 482.588 320.958, 420.975 320.690, 413 320.377 C 395.914 319.708, 361.297 321.364, 348.442 323.465 C 337.114 325.318, 324.077 328.393, 316.489 331.004 C 308.670 333.694, 308.538 332.967, 316.257 329.726 C 319.691 328.284, 321.686 327.081, 320.691 327.052 C 319.696 327.023, 319.160 326.550, 319.500 326 C 320.282 324.734, 318.434 324.728, 314.060 325.983 C 312.175 326.523, 310.448 326.781, 310.222 326.555 C 309.333 325.666, 331.235 319.578, 344 317.166 L 357.500 314.616 516 314.040 C 603.175 313.724, 657.361 313.360, 636.414 313.232 C 615.466 313.105, 580.746 312.703, 559.257 312.339 C 525.079 311.761, 520.258 311.490, 520.763 310.175 C 521.172 309.109, 520.950 308.913, 520 309.500 C 519.069 310.076, 518.825 309.897, 519.201 308.914 C 519.597 307.879, 518.772 307.434, 516.121 307.254 C 513.460 307.074, 512.898 307.269, 514 307.989 C 515.272 308.821, 515.224 308.972, 513.683 308.985 C 512.279 308.997, 512.006 308.488, 512.484 306.750 C 513.086 304.563, 513.060 304.555, 511.552 306.441 C 510.679 307.533, 510 307.835, 510 307.132 C 510 306.445, 509.550 306.160, 509 306.500 C 508.450 306.840, 508 306.641, 508 306.059 C 508 305.477, 508.788 304.971, 509.750 304.937 C 512.488 304.837, 507.013 302.881, 503.714 302.779 C 501.290 302.705, 498.450 301, 500.750 301 C 501.227 301, 502.491 300.292, 503.559 299.426 C 504.626 298.560, 504.922 298.146, 504.216 298.506 C 503.283 298.981, 503.061 298.449, 503.403 296.560 C 503.691 294.971, 503.484 294.201, 502.871 294.580 C 502.319 294.921, 502.106 295.439, 502.398 295.732 C 503.247 296.580, 501.051 300.008, 499.715 299.921 C 498.791 299.861, 498.797 299.722, 499.742 299.340 C 500.609 298.990, 500.695 298.298, 500.027 297.051 C 499.501 296.067, 499.355 294.979, 499.702 294.631 C 500.049 294.284, 499.856 294, 499.274 294 C 498.691 294, 497.998 294.563, 497.734 295.250 C 497.413 296.086, 495.597 296.388, 492.244 296.161 C 487.891 295.867, 487.299 295.573, 487.730 293.923 C 488.016 292.830, 488.710 292.315, 489.364 292.711 C 489.989 293.089, 489.262 291.764, 487.750 289.766 C 486.237 287.768, 485 285.888, 485 285.589 C 485 285.289, 493.212 284.891, 503.250 284.703 C 513.288 284.516, 493.150 284.462, 458.500 284.582 C 409.853 284.752, 392.310 285.152, 381.500 286.336 C 373.800 287.180, 364.350 288.105, 360.500 288.391 C 354.609 288.830, 354.213 288.771, 358 288.022 C 363.706 286.892, 380.118 285.282, 400 283.902 C 408.525 283.310, 416.738 282.719, 418.250 282.588 C 425.726 281.941, 425.191 282.201, 423.250 280.159 C 422.288 279.146, 421.104 278.534, 420.620 278.798 C 420.136 279.062, 419.968 278.653, 420.245 277.889 C 420.523 277.125, 421.332 276.638, 422.044 276.806 C 423.098 277.056, 423.097 276.822, 422.037 275.544 C 421.102 274.417, 420.379 274.271, 419.473 275.023 C 418.533 275.803, 418.247 275.615, 418.355 274.285 C 418.435 273.303, 418.010 272.588, 417.412 272.696 C 416.795 272.807, 416.255 271.143, 416.166 268.857 C 416.079 266.637, 415.711 264.342, 415.349 263.756 C 414.961 263.128, 415.165 262.984, 415.845 263.405 C 416.480 263.797, 417 263.668, 417 263.118 C 417 262.568, 416.610 261.877, 416.134 261.583 C 415.658 261.289, 415.485 259.912, 415.751 258.524 C 416.075 256.825, 415.786 255.995, 414.867 255.985 C 413.736 255.972, 413.730 255.823, 414.835 255.123 C 415.570 254.657, 416.132 253.877, 416.085 253.388 C 416.038 252.900, 416.788 252.461, 417.750 252.414 C 418.712 252.366, 420.266 251.989, 421.202 251.575 C 422.138 251.161, 423.376 251.114, 423.952 251.470 C 424.528 251.827, 425 251.716, 425 251.226 C 425 250.735, 425.563 250.206, 426.250 250.050 C 426.938 249.894, 481.725 249.590, 548 249.374 C 614.275 249.159, 673.450 248.858, 679.500 248.705 C 685.550 248.552, 625.925 248.283, 547 248.107 C 468.075 247.930, 396.750 247.680, 388.500 247.551 C 380.250 247.421, 367.875 247.677, 361 248.120 M 696.750 248.737 C 699.638 248.939, 704.362 248.939, 707.250 248.737 C 710.138 248.535, 707.775 248.370, 702 248.370 C 696.225 248.370, 693.862 248.535, 696.750 248.737 M 1150.500 253.684 C 1146.025 258.851, 1138.623 267.663, 1106.019 306.631 C 1093.654 321.409, 1080.604 336.912, 1077.019 341.081 C 1073.434 345.251, 1068.475 351.192, 1066 354.283 C 1063.525 357.374, 1061.259 359.925, 1060.964 359.951 C 1060.669 359.978, 1060.401 352.688, 1060.369 343.750 C 1060.336 334.813, 1060.240 310.063, 1060.155 288.750 L 1060 250 1006.500 250 C 977.075 250, 953 250.338, 953 250.750 C 953 251.162, 975.387 251.420, 1002.750 251.323 C 1030.112 251.226, 1053.896 251.379, 1055.602 251.665 C 1058.270 252.111, 1058.661 252.556, 1058.395 254.842 C 1058.225 256.304, 1058.029 264.137, 1057.960 272.250 C 1057.890 280.434, 1057.426 287, 1056.917 287 C 1056.413 287, 1056 285.650, 1056 284 C 1056 281.961, 1055.505 281, 1054.455 281 C 1052.454 281, 1048 285.454, 1048 287.455 C 1048 288.847, 1046.829 289.447, 1044.750 289.118 C 1043.492 288.920, 1043.915 290.799, 1045.250 291.338 C 1045.938 291.615, 1045.375 291.885, 1044 291.936 C 1042.233 292.003, 1041.891 292.279, 1042.835 292.877 C 1043.857 293.524, 1043.701 293.845, 1042.169 294.246 C 1041.069 294.533, 1039.733 294.333, 1039.200 293.800 C 1038.575 293.175, 1037.697 293.595, 1036.725 294.982 C 1035.471 296.773, 1034.617 297.019, 1031.610 296.455 C 1029.246 296.011, 1027.957 296.161, 1027.875 296.889 C 1027.806 297.500, 1027.684 298.563, 1027.603 299.250 C 1027.521 299.938, 1026.633 300.357, 1025.627 300.183 C 1024.585 300.002, 1024.069 300.303, 1024.428 300.883 C 1024.773 301.442, 1024.131 302.395, 1023 303 C 1021.869 303.605, 1021.184 304.488, 1021.477 304.963 C 1021.770 305.437, 1020.857 305.698, 1019.448 305.544 C 1017.649 305.346, 1017.039 305.660, 1017.400 306.599 C 1017.682 307.334, 1017.482 308.202, 1016.956 308.527 C 1016.430 308.852, 1016 308.615, 1016 308 C 1016 307.385, 1015.578 307.143, 1015.061 307.462 C 1014.545 307.781, 1013.659 307.245, 1013.092 306.271 C 1012.136 304.628, 1012.056 304.645, 1011.999 306.500 C 1011.918 309.088, 1009.691 312, 1007.793 312 C 1005.768 312, 1001.860 315.508, 1002.768 316.511 C 1003.171 316.955, 1002.788 317.065, 1001.917 316.755 C 1000.956 316.412, 1000.333 316.743, 1000.333 317.595 C 1000.333 318.368, 1000.821 319.007, 1001.417 319.015 C 1002.027 319.024, 1001.934 319.390, 1001.203 319.854 C 1000.489 320.306, 999.814 321.849, 999.703 323.281 C 999.529 325.514, 995.937 330.252, 994.844 329.690 C 994.642 329.585, 995.130 330.063, 995.929 330.750 C 997.185 331.830, 997.152 332, 995.691 332 C 994.204 332, 993.466 333.789, 993.906 336.324 C 993.985 336.778, 993.636 336.893, 993.130 336.580 C 991.904 335.823, 990.919 338.553, 991.626 340.750 C 991.997 341.905, 991.892 342.092, 991.316 341.300 C 990.714 340.472, 989.721 341.461, 988.112 344.495 C 986.796 346.976, 984.940 349.023, 983.851 349.195 C 982.789 349.363, 982.051 349.797, 982.210 350.159 C 982.567 350.971, 977.832 354.780, 975.949 355.197 C 973.998 355.628, 972.129 357.366, 972.664 358.250 C 972.914 358.663, 972.579 359, 971.919 359 C 970.500 359, 968.077 361.967, 968.032 363.761 C 967.977 365.941, 963.823 374.009, 963.014 373.508 C 962.589 373.246, 961.869 368.186, 961.413 362.265 C 960.727 353.342, 960.483 352.270, 959.987 356 C 959.429 360.202, 959.336 360.318, 958.586 357.750 C 958.145 356.238, 957.355 355, 956.833 355 C 956.310 355, 956.172 354.530, 956.527 353.956 C 956.882 353.382, 956.707 352.352, 956.138 351.666 C 955.504 350.903, 954.987 340.566, 954.802 324.960 C 954.636 310.957, 954.246 295.675, 953.936 291 C 953.626 286.325, 953.289 342.913, 953.186 416.750 C 953.053 512.707, 953.309 551, 954.085 551 C 957.094 551, 1057.801 524.859, 1059.980 523.512 C 1060.614 523.121, 1061 515.887, 1061 504.414 L 1061 485.947 1074.155 470.973 C 1081.391 462.738, 1087.594 456, 1087.940 456 C 1088.286 456, 1089.338 457.303, 1090.279 458.895 C 1091.821 461.505, 1113.908 492.944, 1119.593 500.620 L 1121.904 503.740 1147.202 494.310 C 1169.531 485.986, 1190.508 477.885, 1212.238 469.195 C 1215.943 467.713, 1218.981 466.148, 1218.988 465.718 C 1219.004 464.664, 1165.226 386.999, 1162.494 384.130 C 1161.129 382.697, 1166.177 376.821, 1223.500 313.120 C 1235.050 300.285, 1246.750 287.198, 1249.500 284.037 C 1254.883 277.852, 1275.029 254.945, 1278.335 251.250 L 1280.349 249 1217.424 249.033 L 1154.500 249.066 1150.500 253.684 M 900.206 250.741 C 903.895 250.932, 910.195 250.934, 914.206 250.743 C 918.218 250.553, 915.200 250.396, 907.500 250.395 C 899.800 250.393, 896.518 250.549, 900.206 250.741 M 953.355 273.500 C 953.352 278.450, 953.521 280.601, 953.731 278.280 C 953.940 275.959, 953.943 271.909, 953.736 269.280 C 953.530 266.651, 953.358 268.550, 953.355 273.500 M 925 287.878 C 925 309.884, 924.707 311.339, 920.383 310.780 C 918.655 310.557, 911.939 311.155, 899.750 312.618 C 897.138 312.931, 895 313.533, 895 313.955 C 895 314.377, 896.013 314.588, 897.250 314.422 C 898.487 314.257, 905.462 313.588, 912.750 312.936 L 926 311.750 926 289.375 C 926 277.069, 925.775 267, 925.500 267 C 925.225 267, 925 276.395, 925 287.878 M 810.173 310.750 L 810 342 827.080 342 L 844.159 342 843.456 335.250 C 843.070 331.538, 842.587 328.315, 842.382 328.089 C 842.178 327.863, 835.419 328.187, 827.361 328.809 C 819.304 329.431, 812.402 329.748, 812.023 329.514 C 811.644 329.280, 811.527 327.767, 811.764 326.152 C 812.189 323.262, 812.298 323.214, 818.848 323.055 C 822.506 322.966, 830.450 322.265, 836.500 321.497 L 847.500 320.101 838.500 320.578 C 833.550 320.839, 825.563 321.334, 820.750 321.677 L 812 322.299 811.878 314.900 C 811.811 310.830, 811.439 301.200, 811.051 293.500 C 810.460 281.755, 810.319 284.533, 810.173 310.750 M 787.930 314.583 C 787.887 326.081, 787.522 332.716, 787 331.500 C 786.265 329.790, 786.130 329.754, 786.070 331.250 C 785.984 333.393, 785.312 333.455, 783.359 331.502 C 782.230 330.373, 781.380 330.261, 779.910 331.048 C 778.837 331.623, 777.518 331.820, 776.979 331.487 C 776.441 331.154, 776 331.434, 776 332.108 C 776 332.782, 775.704 333.037, 775.342 332.675 C 774.980 332.313, 774.158 332.454, 773.515 332.988 C 772.166 334.107, 759.979 334.916, 741.863 335.087 C 734.912 335.153, 727.712 335.564, 725.863 336.001 C 723.962 336.450, 737.208 336.840, 756.321 336.898 L 790.142 337 789.441 316.750 C 789.055 305.613, 788.573 296.313, 788.370 296.083 C 788.166 295.854, 787.968 304.179, 787.930 314.583 M 873 317.074 C 863.925 318.060, 855.375 318.949, 854 319.050 C 852.269 319.176, 852.035 319.372, 853.239 319.687 C 855.441 320.264, 886.637 317.223, 890.565 316.049 C 894.595 314.845, 892.245 314.982, 873 317.074 M 919 321.232 C 899.312 323.462, 873.039 325.944, 862.686 326.553 L 850.872 327.248 851.081 330.374 C 851.614 338.326, 851.076 340.846, 848.750 341.294 C 847.513 341.533, 864.500 341.790, 886.500 341.866 L 926.500 342.005 926.229 334.252 C 926.080 329.989, 925.855 325.149, 925.729 323.498 L 925.500 320.496 919 321.232 M 1268.500 322.079 C 1255.379 323.628, 1240.942 326.284, 1240.339 327.261 C 1239.952 327.887, 1243.628 327.988, 1250.618 327.542 C 1269.275 326.351, 1295.513 329.374, 1312.374 334.657 C 1343.265 344.335, 1354.127 362.565, 1343.424 386.769 C 1333.728 408.692, 1301.568 436.427, 1258.983 459.591 C 1187.238 498.617, 1082.814 535.864, 954 568.378 C 925.364 575.606, 839.656 595.274, 830.500 596.719 C 820.357 598.319, 807.570 601.800, 807.174 603.067 C 806.928 603.855, 807.058 604.193, 807.463 603.817 C 808.115 603.212, 811.527 605.823, 817.178 611.250 C 818.180 612.212, 818.986 612.662, 818.968 612.250 C 818.912 610.928, 816.555 608.397, 814.750 607.719 C 813.788 607.358, 813 606.207, 813 605.160 C 813 603.638, 813.951 603.142, 817.750 602.679 C 820.362 602.361, 823.970 602.248, 825.766 602.429 C 827.562 602.610, 829.276 602.362, 829.575 601.879 C 829.874 601.396, 830.568 601, 831.118 601 C 831.668 601, 831.797 601.520, 831.405 602.155 C 830.973 602.853, 831.129 603.038, 831.800 602.623 C 832.410 602.246, 835.264 601.730, 838.141 601.477 C 841.018 601.223, 843.626 600.625, 843.936 600.149 C 844.246 599.673, 845.400 599.426, 846.500 599.601 C 847.600 599.776, 851.985 600.050, 856.245 600.210 C 861.310 600.400, 863.992 600.904, 863.995 601.667 C 863.998 602.308, 864.563 603.027, 865.250 603.264 C 866.522 603.703, 857.064 605.995, 835.500 610.474 C 827.024 612.235, 825.262 612.808, 829.500 612.425 C 841.967 611.299, 930.821 590.593, 981.877 576.916 C 994.185 573.619, 1004.425 571.092, 1004.634 571.300 C 1006.113 572.779, 862.366 610.585, 830.517 617.093 C 825.026 618.215, 820.301 619.389, 820.017 619.702 C 819.229 620.569, 829.764 619.083, 836.319 617.402 C 839.520 616.581, 843.064 616.203, 844.195 616.562 C 845.568 616.998, 846.023 616.847, 845.566 616.107 C 845.190 615.498, 845.359 615, 845.941 615 C 846.523 615, 847 615.411, 847 615.913 C 847 616.415, 848.413 616.603, 850.140 616.331 C 852.133 616.017, 853.589 616.322, 854.125 617.168 C 854.589 617.901, 854.977 618.050, 854.985 617.500 C 855.008 616.075, 860.223 615.954, 861.942 617.338 C 863.042 618.224, 863.216 618.220, 862.677 617.321 C 862.154 616.450, 864.064 616.181, 869.985 616.294 C 875.539 616.400, 878 616.821, 878 617.666 C 878 618.347, 877.117 618.715, 876 618.500 C 874.900 618.288, 874 618.566, 874 619.116 C 874 619.667, 873.550 619.840, 873 619.500 C 872.450 619.160, 871.964 619.696, 871.921 620.691 C 871.875 621.740, 871.630 621.975, 871.338 621.250 C 870.635 619.509, 869 619.684, 869 621.500 C 869 622.325, 868.212 623.033, 867.250 623.074 C 863.970 623.214, 860.659 624.038, 859.493 625.006 C 858.853 625.537, 856.230 626.051, 853.665 626.148 C 851.099 626.245, 849 626.701, 849 627.162 C 849 627.623, 848.663 627.900, 848.250 627.777 C 847.176 627.459, 825.898 633.232, 826.378 633.712 C 827.482 634.816, 932.005 609.506, 976 597.481 C 1017.677 586.091, 1068 570.750, 1068 569.436 C 1068 569.217, 1065.862 569.313, 1063.250 569.649 C 1059.472 570.134, 1058.740 570.003, 1059.672 569.008 C 1060.316 568.319, 1060.606 567.136, 1060.315 566.378 C 1060.024 565.620, 1060.311 565, 1060.952 565 C 1061.593 565, 1061.838 564.547, 1061.495 563.992 C 1061.153 563.438, 1061.576 562.281, 1062.436 561.421 C 1063.296 560.561, 1064.003 560.227, 1064.007 560.679 C 1064.010 561.130, 1064.845 560.238, 1065.863 558.695 C 1067.606 556.051, 1072 552.270, 1072 553.413 C 1072 553.703, 1073.603 552.852, 1075.563 551.522 C 1077.523 550.192, 1081.170 548.797, 1083.667 548.423 C 1093.334 546.973, 1106 550.241, 1106 554.185 C 1106 555.183, 1106.536 556, 1107.191 556 C 1107.846 556, 1107.509 556.712, 1106.441 557.582 C 1104.527 559.141, 1104.528 559.154, 1106.500 558.492 C 1107.600 558.123, 1115.025 555.670, 1123 553.041 C 1147.438 544.985, 1193.889 526.494, 1226.500 511.839 C 1243.206 504.332, 1278.295 485.977, 1290.502 478.360 C 1314.594 463.327, 1333.621 448.138, 1348.024 432.442 C 1355.907 423.852, 1354.867 425.539, 1344.949 437.434 C 1340.852 442.347, 1331.958 451.218, 1325.185 457.146 C 1288.382 489.357, 1240.769 515.036, 1162 545.154 C 1119.450 561.423, 1118.954 561.608, 1112.727 563.518 C 1109.552 564.491, 1107.175 565.509, 1107.445 565.779 C 1107.715 566.048, 1109.188 565.766, 1110.718 565.151 C 1112.248 564.536, 1115.486 563.913, 1117.913 563.767 C 1122.131 563.512, 1122.364 563.644, 1123.194 566.759 C 1123.902 569.419, 1123.688 570.418, 1122.031 572.197 C 1120.600 573.733, 1119.995 573.952, 1119.985 572.939 C 1119.975 571.992, 1119.718 571.877, 1119.235 572.600 C 1118.108 574.287, 1115.037 575.687, 1102.781 580.097 C 1077.436 589.216, 1062 593.282, 1052.250 593.407 C 1048.040 593.461, 1044.987 593.081, 1044.970 592.500 C 1044.953 591.950, 1044.429 592.380, 1043.805 593.456 C 1042.679 595.397, 1042.665 595.397, 1041.960 593.456 C 1041.086 591.048, 1041.622 590, 1043.730 590 C 1044.617 590, 1046.243 589.212, 1047.343 588.250 C 1048.757 587.013, 1049.084 586.940, 1048.460 588 C 1047.974 588.825, 1049.411 588.047, 1051.654 586.272 C 1053.898 584.496, 1059.281 581.709, 1063.617 580.079 C 1074.415 576.018, 1071.528 576.257, 1057.832 580.558 C 1034.826 587.782, 984.319 602.332, 962.500 608.022 C 926.719 617.353, 916.181 620.078, 909.600 621.700 C 905.805 622.635, 903.154 623.551, 903.710 623.737 C 904.934 624.145, 903.585 624.468, 950.500 612.512 C 994.948 601.183, 998.001 600.500, 1004.152 600.500 C 1006.711 600.500, 1008.597 600.163, 1008.343 599.750 C 1008.089 599.337, 1008.471 598.963, 1009.191 598.918 C 1009.911 598.873, 1011.737 598.632, 1013.250 598.384 C 1014.769 598.134, 1016 598.395, 1016 598.966 C 1016 599.583, 1019.125 600.028, 1023.750 600.070 L 1031.500 600.141 1027.500 601.539 C 1025.300 602.307, 1020.350 604.516, 1016.500 606.447 C 1012.650 608.377, 1003.650 611.603, 996.500 613.615 C 989.350 615.627, 979.225 618.539, 974 620.087 C 968.775 621.634, 958.425 624.494, 951 626.442 C 943.575 628.391, 934.125 630.898, 930 632.014 C 925.875 633.130, 921.600 634.224, 920.500 634.445 C 919.400 634.666, 910.400 636.873, 900.500 639.350 C 880.539 644.345, 858.378 649.542, 853 650.491 C 851.075 650.830, 845.900 651.954, 841.500 652.988 C 837.100 654.022, 830.940 655.373, 827.811 655.992 C 824.682 656.610, 821.030 657.975, 819.695 659.025 C 818.360 660.075, 816.910 660.612, 816.474 660.217 C 816.037 659.823, 815.962 659.997, 816.308 660.604 C 816.654 661.211, 815.801 662.225, 814.412 662.858 C 812.828 663.580, 812.154 664.473, 812.604 665.254 C 812.998 665.939, 812.952 666.166, 812.502 665.759 C 812.052 665.351, 811.025 665.564, 810.219 666.233 C 809.414 666.902, 806.447 667.510, 803.627 667.585 C 800.807 667.660, 797.150 668.294, 795.500 668.994 C 793.850 669.694, 790.025 670.384, 787 670.529 C 783.975 670.674, 781.500 670.861, 781.500 670.946 C 781.500 671.358, 756.977 673.179, 751.037 673.208 C 749.133 673.217, 747.402 672.705, 747.190 672.070 C 746.902 671.206, 746.448 671.213, 745.380 672.100 C 744.234 673.050, 744.071 672.977, 744.551 671.729 C 744.936 670.725, 744.501 670.046, 743.323 669.811 C 742.321 669.610, 747.575 668.168, 755 666.606 C 762.425 665.044, 768.725 663.530, 769 663.242 C 769.652 662.557, 767.047 662.992, 738.500 668.332 C 709.367 673.782, 707.297 674.154, 703.500 674.627 C 701.850 674.832, 699.838 675.249, 699.028 675.554 C 697.732 676.041, 697.732 676.217, 699.028 677.025 C 700.222 677.770, 700.267 678.279, 699.268 679.722 C 698.590 680.700, 697.101 683.446, 695.958 685.825 C 693.511 690.923, 689.080 696.168, 687.859 695.413 C 687.387 695.121, 687 695.370, 687 695.966 C 687 697.032, 682.217 699.477, 680.750 699.161 C 680.337 699.073, 680 699.422, 680 699.939 C 680 700.455, 678.087 701.157, 675.750 701.498 C 664.776 703.101, 651.516 701.108, 642.549 696.508 C 635.963 693.129, 635.259 691.795, 639.284 690.326 L 642.500 689.152 639.582 689.076 C 637.978 689.034, 631.678 689.675, 625.582 690.500 C 619.487 691.325, 603.025 693.563, 589 695.473 C 574.975 697.384, 552.250 700.304, 538.500 701.963 C 493.109 707.439, 497.987 706.293, 488.118 713.796 C 483.378 717.399, 477.096 722.294, 474.158 724.674 C 471.220 727.053, 468.408 729, 467.908 729 C 467.409 729, 467 729.472, 467 730.049 C 467 730.712, 468.932 730.911, 472.250 730.590 C 475.137 730.311, 482.225 729.811, 488 729.480 C 514.497 727.957, 596.070 719.793, 623.500 715.918 C 627.350 715.374, 635.652 714.252, 641.948 713.424 C 676.695 708.858, 788.771 689.160, 793.500 686.789 C 794.600 686.237, 801.425 679.777, 808.667 672.433 C 815.909 665.089, 822.884 658.841, 824.167 658.550 C 928.259 634.912, 990.897 618.358, 1056 597.282 C 1087.824 586.979, 1131.172 572.237, 1145.372 566.888 L 1158.243 562.039 1160.372 564.733 C 1161.542 566.214, 1165.898 572.168, 1170.050 577.963 L 1177.600 588.500 1238.386 588.758 C 1279.957 588.934, 1299.063 588.688, 1298.827 587.980 C 1298.478 586.934, 1287.461 571.617, 1263.286 538.566 L 1250.072 520.500 1253.634 518.500 C 1317.612 482.582, 1354.277 453.103, 1375.760 420.307 C 1385.434 405.538, 1388.936 394.575, 1388.976 378.932 C 1389.013 364.301, 1385.632 354.803, 1377.157 345.730 C 1365.681 333.444, 1348.154 325.776, 1324 322.474 C 1312.588 320.914, 1280.316 320.685, 1268.500 322.079 M 897 325.062 C 887.925 326.059, 874.451 327.155, 867.059 327.497 C 859.666 327.839, 853.227 328.360, 852.750 328.654 C 851.468 329.447, 853.009 335.276, 854.881 336.719 C 857.210 338.514, 863.979 338.025, 864.079 336.054 C 864.131 335.024, 864.328 334.921, 864.662 335.750 C 864.940 336.438, 865.565 337, 866.052 337 C 866.539 337, 866.696 336.371, 866.400 335.601 C 866.105 334.832, 866.344 333.905, 866.932 333.542 C 867.519 333.179, 868 333.414, 868 334.063 C 868 334.936, 868.398 334.914, 869.523 333.981 C 870.810 332.913, 870.960 333.010, 870.492 334.609 C 870.121 335.875, 870.329 335.757, 871.122 334.250 C 871.773 333.012, 872.687 332, 873.153 332 C 873.619 332, 874 331.400, 874 330.667 C 874 329.933, 874.675 329.333, 875.500 329.333 C 876.325 329.333, 877 329.960, 877 330.726 C 877 331.523, 876.507 331.813, 875.845 331.405 C 875.146 330.972, 874.962 331.129, 875.378 331.802 C 876.484 333.592, 878.833 332.076, 878.272 329.934 C 877.797 328.118, 877.940 328.087, 880.560 329.447 C 883.044 330.735, 883.485 330.718, 884.525 329.297 C 885.276 328.269, 885.928 328.075, 886.348 328.755 C 886.708 329.336, 887.902 329.577, 889.001 329.289 C 890.163 328.986, 891 329.259, 891 329.942 C 891 330.589, 890.550 330.840, 890 330.500 C 889.450 330.160, 889 330.359, 889 330.941 C 889 332.350, 890.316 332.284, 891.800 330.800 C 892.733 329.867, 893.009 329.922, 893.039 331.050 C 893.061 331.848, 893.714 331.038, 894.491 329.250 C 895.836 326.156, 898 324.804, 898 327.059 C 898 327.641, 897.480 327.797, 896.845 327.405 C 896.156 326.979, 895.961 327.129, 896.362 327.776 C 897.194 329.123, 901.596 328.396, 904.369 326.454 C 905.511 325.654, 908.257 325.007, 910.473 325.015 C 913.590 325.027, 914.161 325.270, 913 326.091 C 911.667 327.034, 911.667 327.102, 913 326.701 C 913.825 326.453, 914.388 325.747, 914.252 325.132 C 913.925 323.653, 917.322 324.217, 919.652 326.029 C 921.359 327.356, 921.354 327.295, 919.595 325.233 C 917.413 322.675, 918.640 322.684, 897 325.062 M 832.500 329.674 C 830.850 329.880, 828.457 330.279, 827.183 330.560 C 824.882 331.068, 824.888 331.093, 828.050 334.047 C 832.015 337.751, 839.990 339.244, 840.015 336.287 C 840.028 334.767, 840.176 334.725, 841 336 C 841.710 337.099, 841.973 336.362, 841.985 333.250 C 842 329.088, 841.933 329.003, 838.750 329.150 C 836.962 329.232, 834.150 329.468, 832.500 329.674 M 1242.500 335.577 C 1228.417 336.383, 1210.921 338.319, 1210.422 339.127 C 1210.125 339.607, 1214.746 340.005, 1220.691 340.011 C 1233.065 340.023, 1255.116 342.188, 1265.725 344.433 C 1287.792 349.102, 1303.916 358.197, 1310.757 369.833 C 1313.199 373.988, 1313.500 375.488, 1313.500 383.500 C 1313.500 391.286, 1313.132 393.242, 1310.775 398 C 1305.190 409.271, 1289.682 424.667, 1271.295 437.195 C 1267.882 439.521, 1265.268 441.601, 1265.486 441.819 C 1266.080 442.414, 1276.203 436.497, 1288 428.659 C 1309.529 414.354, 1321.833 402.129, 1328.754 388.163 C 1335.374 374.804, 1333.406 363.087, 1322.839 352.944 C 1311.522 342.081, 1291.753 336.354, 1263 335.609 C 1255.025 335.402, 1245.800 335.388, 1242.500 335.577 M 678 345.552 C 678.825 345.729, 681.574 346.144, 684.108 346.476 C 688.168 347.008, 688.686 347.352, 688.465 349.365 C 688.188 351.895, 690.691 352.331, 693.259 350.200 C 694.043 349.550, 695.052 349.351, 695.501 349.759 C 695.951 350.166, 696.053 349.756, 695.728 348.848 C 694.957 346.690, 695.857 345.868, 697.881 346.880 C 698.790 347.334, 701.475 347.142, 704 346.443 C 708.077 345.313, 706.998 345.198, 692.500 345.214 C 683.700 345.224, 677.175 345.376, 678 345.552 M 810 466.117 L 810 579.233 812.250 578.612 C 813.487 578.270, 819.675 577.074, 826 575.954 C 839.471 573.567, 874.618 566.635, 904.852 560.402 C 916.596 557.981, 926.393 556, 926.622 556 C 927.224 556, 926.895 377.663, 926.269 364.250 L 925.743 353 888.372 353 L 851 353 850.868 379.250 C 850.795 393.688, 850.425 412.475, 850.047 421 L 849.358 436.500 849.032 425.500 C 848.751 416.019, 848.621 415.301, 848.087 420.296 C 847.747 423.484, 846.940 426.419, 846.295 426.818 C 845.649 427.217, 844.952 430.009, 844.745 433.022 C 844.345 438.870, 843.375 372.444, 843.683 360.250 L 843.866 353 826.933 353 L 810 353 810 466.117 M 510 429.947 C 506.838 430.677, 506.715 430.826, 508.726 431.488 C 510.511 432.076, 510.759 432.582, 509.976 434.045 C 509.439 435.048, 509 436.606, 509 437.507 C 509 438.915, 509.371 438.854, 511.635 437.073 C 513.084 435.933, 514.772 435.002, 515.385 435.004 C 515.998 435.006, 515.087 435.869, 513.361 436.922 C 511.634 437.975, 510.022 439.435, 509.778 440.168 C 509.123 442.137, 493.760 442.405, 457.500 441.080 C 426.766 439.957, 396.051 437.807, 384.500 435.969 C 377.906 434.921, 375.432 434.766, 376.111 435.444 C 376.355 435.688, 381.942 436.641, 388.527 437.561 C 395.112 438.482, 400.950 439.784, 401.500 440.455 C 402.050 441.126, 403.175 441.973, 404 442.337 C 404.825 442.700, 401.225 442.804, 396 442.568 C 388.301 442.221, 387.452 442.308, 391.523 443.029 C 404.184 445.271, 435.705 447.127, 470.673 447.689 C 508.227 448.293, 508.855 448.337, 509.389 450.381 C 509.731 451.687, 509.338 452.791, 508.329 453.356 C 506.148 454.576, 493.148 466.098, 484 474.920 C 479.875 478.897, 478.075 481.070, 480 479.747 C 481.925 478.425, 484.335 477.533, 485.355 477.765 C 486.988 478.136, 486.808 478.626, 483.855 481.842 C 480.756 485.217, 480.729 485.300, 483.500 482.928 C 485.150 481.516, 492.641 474.903, 500.146 468.234 L 513.793 456.107 519.475 456.303 C 524.740 456.486, 525.372 456.260, 528.079 453.234 C 530.344 450.701, 531 449.007, 531 445.684 C 531 443.328, 530.438 440.769, 529.750 439.998 C 528.687 438.806, 528.761 438.794, 530.250 439.921 C 531.212 440.649, 532 441.838, 532 442.563 C 532 443.289, 532.421 444.142, 532.936 444.460 C 533.500 444.809, 533.561 443.938, 533.090 442.269 C 532.660 440.746, 532.490 438.971, 532.713 438.323 C 532.935 437.676, 531.740 436.129, 530.057 434.884 C 527.926 433.308, 527.367 432.391, 528.219 431.865 C 528.892 431.449, 529.193 430.860, 528.889 430.556 C 527.907 429.574, 513.609 429.113, 510 429.947 M 469.345 463.494 C 465.817 464.981, 465.400 465.949, 464.608 474.500 C 463.997 481.089, 464.555 480.849, 465.910 473.942 C 466.508 470.893, 466.815 470.341, 466.890 472.183 C 466.964 473.983, 467.700 475.087, 469.127 475.540 C 471.035 476.146, 471.196 476.741, 470.700 481.358 C 470.264 485.410, 470.359 485.970, 471.151 484 C 472.503 480.635, 473.950 466.033, 473.144 463.883 C 472.572 462.355, 472.149 462.312, 469.345 463.494 M 235.892 593.741 C 210.273 617.908, 203.409 644.033, 216.270 668.419 C 220.087 675.657, 234.766 690.844, 243.334 696.421 C 270.430 714.057, 312.323 724.852, 372 729.576 C 404.741 732.167, 443.452 730.575, 461.256 725.905 C 464.598 725.028, 469.602 721.899, 490.128 707.850 C 497.807 702.594, 501.689 701.403, 517.169 699.553 C 524.501 698.677, 537.025 697.074, 545 695.990 C 582.158 690.940, 613.120 686.792, 619.500 686.009 C 629.453 684.789, 645.384 681.957, 645.989 681.301 C 646.270 680.996, 642.337 681.062, 637.250 681.448 C 630.884 681.931, 628 681.815, 628 681.075 C 628 680.484, 628.450 680, 629 680 C 630.311 680, 630.297 675.302, 628.984 674.490 C 628.425 674.144, 628.226 673.443, 628.543 672.931 C 629.034 672.136, 627.855 671.813, 625.374 672.063 C 625.029 672.098, 624.221 671.085, 623.578 669.813 C 622.732 668.140, 622.711 667.191, 623.501 666.382 C 624.517 665.342, 639.485 661.756, 648.410 660.414 C 654.381 659.516, 668.698 656.180, 667 656.082 C 666.175 656.035, 661.675 656.663, 657 657.479 C 629.342 662.304, 592.320 668.071, 551 673.991 C 518.436 678.656, 511.090 679.848, 509.636 680.701 C 508.447 681.398, 506.119 683.987, 497.906 693.750 C 495.812 696.240, 493.482 696.793, 494.323 694.601 C 494.618 693.831, 497.141 689.561, 499.930 685.112 C 502.718 680.662, 505 676.831, 505 676.597 C 505 676.364, 501.962 674.409, 498.250 672.253 C 494.538 670.097, 487.982 666.150, 483.683 663.480 L 475.866 658.627 449.183 661.342 C 368.469 669.556, 306.480 666.677, 271.427 653.088 C 254.642 646.581, 240.151 633.992, 236.380 622.640 C 233.133 612.862, 236.509 596.409, 243.232 589.253 C 244.396 588.014, 244.829 587, 244.193 587 C 243.557 587, 239.822 590.033, 235.892 593.741 M 263.643 594.842 C 261.379 597.343, 257.049 609.581, 257.021 613.554 C 256.988 618.405, 261.672 626.500, 267.704 632.012 C 275.454 639.095, 290.388 646.169, 305.500 649.916 C 328.713 655.670, 337.588 656.452, 380 656.477 C 417.619 656.499, 435.133 655.533, 463 651.895 C 481.591 649.468, 479.135 649.172, 486.698 654.754 C 490.439 657.516, 498.088 662.743, 503.695 666.371 L 513.890 672.966 540.695 669.018 C 582.332 662.884, 606.257 659.207, 621.500 656.596 C 629.200 655.277, 641.913 653.190, 649.750 651.957 C 657.587 650.725, 664 649.366, 664 648.939 C 664 648.511, 662.538 648.548, 660.750 649.020 C 658.962 649.492, 651.650 650.597, 644.500 651.475 C 637.350 652.354, 630.875 653.291, 630.111 653.558 C 625.377 655.214, 597 657.252, 597 655.936 C 597 655.456, 596.251 655.350, 595.336 655.701 C 594.100 656.176, 593.881 655.975, 594.483 654.920 C 595.139 653.770, 595.037 653.738, 593.947 654.750 C 592.075 656.487, 588.483 656.310, 584.700 654.294 C 582.940 653.356, 581.179 652.676, 580.786 652.782 C 580.393 652.889, 580.307 652.364, 580.593 651.617 C 580.880 650.870, 580.391 649.980, 579.506 649.640 C 578.570 649.282, 578.152 649.437, 578.507 650.011 C 578.843 650.555, 578.431 651, 577.590 651 C 576.643 651, 576.282 650.430, 576.638 649.500 C 577.237 647.940, 576.431 647.826, 564.750 647.829 C 562.138 647.829, 560 647.477, 560 647.046 C 560 645.757, 567.343 644.936, 568.088 646.142 C 568.538 646.870, 568.936 646.778, 569.300 645.863 C 569.691 644.881, 569.864 644.851, 569.921 645.758 C 569.976 646.627, 570.542 646.740, 571.750 646.122 C 572.712 645.630, 580.025 644.246, 588 643.046 C 595.975 641.846, 604.300 640.448, 606.500 639.938 C 610.855 638.930, 649.410 633.323, 657.500 632.521 C 660.250 632.248, 664.783 631.554, 667.573 630.978 C 670.363 630.403, 678.013 629.075, 684.573 628.028 C 712.034 623.645, 729.763 620.194, 718.500 621.424 C 716.300 621.664, 704.150 623.479, 691.500 625.457 C 628.054 635.377, 563.531 643.823, 552.587 643.640 C 542.961 643.479, 544.306 644.414, 531.536 629 C 527.207 623.775, 523.107 618.882, 522.425 618.128 C 521.374 616.966, 519.445 617.004, 509.842 618.378 C 438.465 628.592, 396.056 631.869, 358.500 630.073 C 324.272 628.436, 303.059 624.546, 287.213 617.002 C 276.750 612.021, 268.772 604.442, 266.772 597.582 C 265.439 593.011, 265.362 592.943, 263.643 594.842 M 763.083 595.536 C 760.103 596.366, 755.378 598.364, 752.583 599.976 C 747.016 603.187, 736.607 611.940, 737.406 612.739 C 737.681 613.014, 739.804 611.434, 742.122 609.228 C 747.791 603.834, 758.337 598.628, 763.673 598.590 C 765.968 598.574, 767.629 598.209, 767.364 597.780 C 767.099 597.351, 768.285 597, 770 597 C 772.102 597, 772.886 597.376, 772.405 598.155 C 771.953 598.885, 772.131 599.037, 772.889 598.568 C 773.548 598.161, 774.804 598.422, 775.679 599.149 C 777.512 600.670, 779.557 600.857, 782.750 599.797 C 784.206 599.313, 785 599.452, 785 600.191 C 785 600.819, 785.271 601.062, 785.603 600.731 C 785.934 600.399, 787.397 600.590, 788.853 601.156 C 792.206 602.458, 795.999 603.280, 798.250 603.192 C 799.212 603.155, 800 603.546, 800 604.062 C 800 604.578, 800.643 605, 801.429 605 C 802.215 605, 804.519 606.567, 806.550 608.482 C 809.458 611.225, 810.350 612.923, 810.751 616.482 C 811.218 620.626, 810.806 621.725, 805.779 629.750 C 799.095 640.419, 798.763 641, 799.345 641 C 800.105 641, 810.047 625.133, 811.567 621.493 C 813.844 616.043, 812.439 612.274, 805.581 605.440 C 796.716 596.606, 791.945 594.604, 779 594.285 C 771.968 594.112, 766.711 594.525, 763.083 595.536 M 818.130 618 C 818.052 619.375, 817.311 621.797, 816.484 623.382 C 814.121 627.913, 813.552 633.383, 815.293 634.828 C 816.892 636.155, 825.349 635.374, 824.487 633.979 C 824.225 633.555, 822.447 633.561, 820.535 633.992 C 815.192 635.197, 814.381 633.402, 817.012 626.188 C 818.201 622.927, 818.970 619.189, 818.723 617.880 L 818.272 615.500 818.130 618 M 223 621.550 C 223 622.643, 222.467 623.010, 221.448 622.618 C 220.558 622.277, 220.157 622.445, 220.507 623.011 C 220.843 623.555, 220.622 624, 220.015 624 C 219.409 624, 219.045 624.788, 219.206 625.750 C 219.368 626.712, 219.050 627.431, 218.500 627.346 C 217.950 627.261, 216.920 627.823, 216.211 628.596 C 215.152 629.749, 215.182 630, 216.377 630 C 217.178 630, 218.009 630.527, 218.224 631.171 C 218.439 631.816, 219.580 632.414, 220.761 632.501 C 222.058 632.596, 222.652 632.232, 222.262 631.579 C 221.907 630.986, 222.377 631.118, 223.308 631.872 C 224.590 632.912, 225 632.943, 225 632 C 225 631.007, 225.303 631.007, 226.500 632 C 227.618 632.928, 228 632.944, 228 632.063 C 228 631.414, 228.450 631.160, 229 631.500 C 229.550 631.840, 230 631.390, 230 630.500 C 230 629.578, 230.473 629.174, 231.100 629.562 C 231.892 630.051, 231.889 629.662, 231.090 628.169 C 230.181 626.470, 230.357 625.745, 232.066 624.153 C 233.225 623.074, 233.720 621.945, 233.180 621.611 C 232.646 621.281, 231.952 621.684, 231.636 622.506 C 231.321 623.328, 230.572 624, 229.972 624 C 229.373 624, 229.207 623.474, 229.605 622.830 C 230.080 622.061, 229.798 621.864, 228.779 622.255 C 227.927 622.582, 226.278 622.183, 225.115 621.368 C 223.216 620.038, 223 620.056, 223 621.550 M 511 621.100 C 508.525 621.606, 505.938 622.090, 505.250 622.177 C 504.563 622.263, 504 622.652, 504 623.042 C 504 623.431, 502.762 624.011, 501.250 624.329 C 497.347 625.152, 492.509 629.690, 492.454 632.581 C 492.413 634.675, 492.883 635.013, 495.954 635.100 C 499.978 635.214, 495.659 636.310, 474.500 640.542 L 462.500 642.943 478 642.400 C 486.525 642.102, 494.288 641.634, 495.250 641.361 C 496.212 641.088, 497 641.346, 497 641.933 C 497 642.520, 496.108 643, 495.018 643 C 493.321 643, 493.538 643.517, 496.524 646.592 C 499.896 650.065, 507.448 653.092, 511.004 652.397 C 520.846 650.475, 523.620 649.176, 528.632 644.147 C 530.905 641.866, 533.268 640, 533.882 640 C 539.291 640, 524.583 621.451, 518.500 620.601 C 516.850 620.370, 513.475 620.595, 511 621.100 M 881.500 628.539 C 876.550 629.832, 872.087 630.914, 871.583 630.945 C 871.079 630.975, 870.913 631.246, 871.214 631.548 C 871.742 632.076, 892.059 627.275, 892.913 626.420 C 893.735 625.598, 890.378 626.222, 881.500 628.539 M 692 650.953 C 687.325 651.917, 680.235 653.295, 676.245 654.014 C 672.254 654.734, 669.174 655.507, 669.400 655.733 C 669.905 656.238, 692.463 652.406, 700 650.535 C 707.901 648.574, 702.056 648.879, 692 650.953 M 738.500 661.157 C 717.199 665.224, 714.053 665.655, 713.635 664.562 C 713.409 663.970, 712.481 664.386, 711.541 665.500 C 710.612 666.600, 710.176 666.825, 710.573 666 C 711.158 664.783, 711.040 664.736, 709.947 665.750 C 708.268 667.308, 706.640 667.391, 707.580 665.870 C 707.981 665.222, 707.761 664.913, 707.064 665.145 C 706.396 665.368, 705.877 665.989, 705.910 666.525 C 705.943 667.061, 704.514 668.028, 702.735 668.674 C 697.135 670.706, 701.496 670.111, 718.260 666.556 C 727.192 664.661, 738.775 662.232, 744 661.158 C 749.225 660.084, 752.375 659.215, 751 659.227 C 749.625 659.238, 744 660.107, 738.500 661.157 M 236.499 667 C 243.239 675.670, 249.870 680.902, 261.569 686.782 C 284.021 698.066, 316.714 702.844, 373.330 703.116 C 386.623 703.180, 396.600 703.422, 395.500 703.655 C 394.400 703.888, 392.469 704.299, 391.209 704.568 C 389.706 704.890, 389.185 705.478, 389.694 706.279 C 390.120 706.951, 390.476 707.837, 390.485 708.250 C 390.493 708.663, 390.725 708.947, 391 708.882 C 391.275 708.816, 394.438 710.378, 398.029 712.352 C 411.196 719.589, 423.439 718.985, 432.429 710.653 C 435.967 707.375, 438.001 700.971, 437.996 693.124 C 437.990 682.861, 434.262 678.107, 424.313 675.676 C 413.001 672.912, 401.623 675.721, 395.359 682.825 C 394.182 684.161, 392.792 684.990, 392.271 684.667 C 391.749 684.345, 390.322 685.861, 389.099 688.037 C 387.786 690.374, 385.878 692.244, 384.438 692.605 C 380.742 693.532, 381.521 694.992, 385.750 695.063 C 389.296 695.123, 389.364 695.183, 387 696.160 C 383.079 697.781, 328.130 697.332, 311.500 695.544 C 274.062 691.517, 254.906 684.601, 239.761 669.642 C 236.898 666.814, 235.430 665.625, 236.499 667 M 995.866 670.762 L 957.232 671.023 955.528 680.762 C 949.208 716.885, 946.935 729.716, 946.586 731.250 C 946.211 732.894, 948.595 733, 985.930 733 L 1025.673 733 1026.624 725.500 L 1027.575 718 998.288 718 C 965.822 718, 968.365 718.582, 969.877 711.500 L 970.518 708.500 998.009 708 L 1025.500 707.500 1026.681 701.515 C 1027.331 698.223, 1027.689 695.356, 1027.477 695.144 C 1027.266 694.932, 1014.897 694.839, 999.990 694.936 L 972.888 695.112 973.576 691.306 C 973.953 689.213, 974.455 687.163, 974.690 686.750 C 974.926 686.337, 988.101 686, 1003.968 686 L 1032.818 686 1034.043 679.150 C 1034.716 675.383, 1035.094 671.895, 1034.883 671.400 C 1034.663 670.882, 1018.089 670.611, 995.866 670.762 M 845.147 677.943 C 844.516 681.761, 844 685.361, 844 685.943 C 844 686.639, 849.124 687, 859 687 C 872.010 687, 874 687.210, 874 688.582 C 874 689.917, 867.725 725.947, 866.569 731.250 C 866.225 732.828, 867.196 733, 876.426 733 L 886.665 733 890.561 710.024 L 894.457 687.047 910.476 686.774 L 926.496 686.500 928.130 678.750 L 929.764 671 888.029 671 L 846.293 671 845.147 677.943 M 1076.275 672.654 C 1070.443 674.719, 1062.601 682.065, 1059.574 688.297 C 1055.860 695.946, 1054.335 706.324, 1055.783 714.108 C 1057.155 721.486, 1060.592 726.317, 1067.089 730 C 1071.480 732.489, 1071.631 732.501, 1101.106 732.804 L 1130.712 733.108 1131.359 727.804 C 1131.715 724.887, 1132.282 721.487, 1132.620 720.250 L 1133.233 718 1109.867 717.994 C 1096.718 717.991, 1084.856 717.532, 1082.741 716.945 C 1077.153 715.393, 1075.632 712.383, 1076.228 704.054 C 1076.849 695.378, 1079.164 691.201, 1084.985 688.250 C 1089.245 686.091, 1090.456 686, 1115.074 686 L 1140.724 686 1142.216 678.500 L 1143.708 671 1112.104 671.079 C 1086.750 671.142, 1079.664 671.454, 1076.275 672.654 M 1168.545 673.250 C 1168.274 674.487, 1166.012 687.425, 1163.519 702 C 1161.026 716.575, 1158.756 729.513, 1158.474 730.750 C 1157.969 732.971, 1158.095 733, 1168.273 733 L 1178.584 733 1180.542 721.250 L 1182.500 709.500 1205.250 709.231 C 1223.104 709.020, 1228 709.235, 1228 710.231 C 1228 710.929, 1227.335 715.100, 1226.522 719.500 C 1225.709 723.900, 1224.820 728.737, 1224.547 730.250 L 1224.050 733 1234.368 733 L 1244.687 733 1246.845 720.250 C 1248.033 713.237, 1250.344 700.075, 1251.983 691 C 1253.621 681.925, 1254.970 673.712, 1254.980 672.750 C 1254.998 671.202, 1253.877 671, 1245.250 671.001 L 1235.500 671.002 1233.682 682.206 C 1232.683 688.368, 1231.644 693.767, 1231.373 694.205 C 1231.103 694.642, 1220.538 695, 1207.896 695 L 1184.909 695 1185.538 691.250 C 1185.884 689.188, 1186.805 683.963, 1187.584 679.640 C 1188.363 675.316, 1189 671.604, 1189 671.390 C 1189 671.175, 1184.509 671, 1179.019 671 C 1169.481 671, 1169.016 671.100, 1168.545 673.250" stroke="none" fill="#044c94" fill-rule="evenodd"/></svg>